<svg width="251" height="160" viewBox="0 0 251 160" fill="none" xmlns="http://www.w3.org/2000/svg">
<path fill-rule="evenodd" clip-rule="evenodd" d="M13.6668 121.938C12.1778 117.145 11.3388 114.435 11.1508 113.804C10.9638 113.176 10.8308 112.681 10.7478 112.316C10.4138 113.614 9.45576 116.821 7.87676 121.938H13.6668ZM16.4028 131.179L14.7918 125.89H6.68976L5.07776 131.179H-0.000239499L7.84476 108.864H13.6058L21.4798 131.179H16.4028ZM45.1718 131.179H39.1828L29.5128 114.366H29.3778C29.5698 117.336 29.6658 119.453 29.6658 120.722V131.179H25.4548V108.957H31.3988L41.0528 125.601H41.1588C41.0058 122.712 40.9308 120.669 40.9308 119.475V108.957H45.1718V131.179ZM58.6478 118.7H67.4658V130.222C66.0358 130.689 64.6898 131.015 63.4288 131.202C62.1678 131.391 60.8778 131.485 59.5598 131.485C56.2048 131.485 53.6458 130.499 51.8758 128.527C50.1078 126.557 49.2238 123.726 49.2238 120.038C49.2238 116.449 50.2498 113.654 52.3018 111.647C54.3528 109.641 57.1988 108.636 60.8368 108.636C63.1168 108.636 65.3168 109.091 67.4338 110.005L65.8688 113.774C64.2478 112.963 62.5608 112.558 60.8068 112.558C58.7698 112.558 57.1378 113.244 55.9118 114.611C54.6848 115.978 54.0718 117.818 54.0718 120.13C54.0718 122.54 54.5668 124.384 55.5548 125.655C56.5428 126.926 57.9788 127.562 59.8638 127.562C60.8478 127.562 61.8458 127.46 62.8598 127.258V122.623H58.6478V118.7ZM85.5538 131.179H72.7558V108.957H85.5538V112.816H77.4678V117.697H84.9918V121.559H77.4678V127.29H85.5538V131.179ZM90.1908 131.179V108.957H94.9028V127.29H103.917V131.179H90.1908ZM125.306 112.558C123.532 112.558 122.159 113.226 121.187 114.558C120.215 115.89 119.727 117.748 119.727 120.128C119.727 125.084 121.586 127.563 125.306 127.563C126.867 127.563 128.757 127.172 130.976 126.392V130.344C129.152 131.104 127.115 131.485 124.866 131.485C121.633 131.485 119.16 130.505 117.447 128.543C115.734 126.583 114.878 123.768 114.878 120.099C114.878 117.787 115.298 115.764 116.139 114.026C116.982 112.287 118.189 110.956 119.765 110.028C121.34 109.099 123.188 108.636 125.306 108.636C127.464 108.636 129.633 109.16 131.813 110.203L130.293 114.033C129.462 113.639 128.625 113.293 127.784 113C126.942 112.706 126.117 112.558 125.306 112.558ZM153.915 131.179H149.218V121.588H140.415V131.179H135.705V108.957H140.415V117.666H149.218V108.957H153.915V131.179ZM171.017 121.938C169.526 117.145 168.688 114.435 168.501 113.804C168.314 113.176 168.179 112.681 168.098 112.316C167.764 113.614 166.806 116.821 165.225 121.938H171.017ZM173.753 131.179L172.141 125.89H164.038L162.428 131.179H157.35L165.195 108.864H170.956L178.831 131.179H173.753ZM186.961 118.821H188.481C189.97 118.821 191.07 118.573 191.779 118.076C192.488 117.58 192.843 116.8 192.843 115.735C192.843 114.682 192.482 113.932 191.755 113.486C191.032 113.04 189.909 112.816 188.391 112.816H186.961V118.821ZM186.961 122.651V131.179H182.249V108.957H188.723C191.743 108.957 193.979 109.507 195.428 110.605C196.876 111.705 197.601 113.374 197.601 115.613C197.601 116.922 197.241 118.084 196.522 119.104C195.801 120.121 194.784 120.919 193.466 121.496C196.811 126.493 198.989 129.722 200.003 131.179H194.774L189.469 122.651H186.961ZM208.135 108.955V131.178H203.423V108.955H208.135ZM222.927 131.179H218.215V112.879H212.179V108.957H228.961V112.879H222.927V131.179ZM240.591 118.107L245.228 108.956H250.306L242.932 122.531V131.179H238.25V122.682L230.878 108.956H235.985L240.591 118.107ZM39.0948 159.357H36.9398V140.837H47.2658V142.75H39.0948V149.526H46.7708V151.441H39.0948V159.357ZM52.2028 150.071C52.2028 152.58 52.7368 154.483 53.8048 155.779C54.8718 157.074 56.4258 157.724 58.4598 157.724C60.5128 157.724 62.0628 157.078 63.1098 155.785C64.1548 154.493 64.6808 152.587 64.6808 150.071C64.6808 147.581 64.1588 145.693 63.1158 144.405C62.0728 143.114 60.5308 142.472 58.4858 142.472C56.4328 142.472 54.8718 143.12 53.8048 144.414C52.7368 145.711 52.2028 147.596 52.2028 150.071ZM66.9608 150.071C66.9608 153.037 66.2108 155.367 64.7098 157.066C63.2138 158.763 61.1278 159.609 58.4598 159.609C55.7318 159.609 53.6288 158.779 52.1438 157.107C50.6648 155.439 49.9218 153.086 49.9218 150.046C49.9218 147.031 50.6648 144.693 52.1508 143.036C53.6378 141.374 55.7498 140.545 58.4858 140.545C61.1448 140.545 63.2238 141.39 64.7178 143.079C66.2128 144.77 66.9608 147.1 66.9608 150.071ZM72.6888 149.807H75.6408C77.1618 149.807 78.2748 149.506 78.9858 148.899C79.6948 148.296 80.0488 147.393 80.0488 146.183C80.0488 144.959 79.6888 144.075 78.9648 143.537C78.2458 142.995 77.0848 142.726 75.4878 142.726H72.6888V149.807ZM72.6888 151.655V159.356H70.5358V140.838H75.6158C77.8878 140.838 79.5658 141.272 80.6518 142.142C81.7358 143.011 82.2778 144.321 82.2778 146.071C82.2778 148.52 81.0368 150.174 78.5538 151.034L83.5838 159.356H81.0368L76.5528 151.655H72.6888ZM101.243 142.497C99.2078 142.497 97.6008 143.174 96.4208 144.532C95.2458 145.885 94.6548 147.741 94.6548 150.098C94.6548 152.522 95.2218 154.396 96.3618 155.714C97.4948 157.036 99.1148 157.697 101.217 157.697C102.509 157.697 103.985 157.466 105.638 157.002V158.89C104.354 159.371 102.771 159.611 100.887 159.611C98.1588 159.611 96.0568 158.782 94.5718 157.128C93.0928 155.472 92.3508 153.119 92.3508 150.071C92.3508 148.165 92.7058 146.492 93.4208 145.056C94.1318 143.618 95.1648 142.514 96.5128 141.737C97.8578 140.959 99.4428 140.572 101.268 140.572C103.211 140.572 104.91 140.925 106.359 141.636L105.448 143.485C104.047 142.827 102.643 142.497 101.243 142.497ZM123.74 159.357H121.588V150.642H111.834V159.357H109.679V140.837H111.834V148.717H121.588V140.837H123.74V159.357ZM130.974 140.838V159.358H128.822V140.838H130.974ZM136.054 159.357V140.837H138.207V157.407H146.378V159.357H136.054ZM162.023 149.996C162.023 147.583 161.418 145.76 160.204 144.536C158.992 143.312 157.191 142.7 154.803 142.7H151.674V157.496H154.296C156.863 157.496 158.792 156.865 160.084 155.602C161.377 154.339 162.023 152.471 162.023 149.996ZM164.303 149.92C164.303 152.978 163.472 155.314 161.815 156.93C160.153 158.549 157.766 159.358 154.651 159.358H149.519V140.838H155.195C158.075 140.838 160.312 141.635 161.909 143.232C163.504 144.827 164.303 147.058 164.303 149.92ZM170.586 149.807H173.536C175.057 149.807 176.172 149.506 176.881 148.899C177.591 148.296 177.946 147.393 177.946 146.183C177.946 144.959 177.587 144.075 176.862 143.537C176.143 142.995 174.982 142.726 173.385 142.726H170.586V149.807ZM170.586 151.655V159.356H168.432V140.838H173.513C175.785 140.838 177.461 141.272 178.549 142.142C179.633 143.011 180.175 144.321 180.175 146.071C180.175 148.52 178.934 150.174 176.451 151.034L181.48 159.356H178.934L174.45 151.655H170.586ZM194.794 159.357H184.47V140.837H194.794V142.75H186.623V148.717H194.301V150.616H186.623V157.432H194.794V159.357ZM213.366 159.357H210.908L200.787 143.814H200.685C200.818 145.639 200.887 147.311 200.887 148.831V159.357H198.899V140.837H201.331L211.427 156.316H211.527C211.511 156.089 211.472 155.358 211.413 154.119C211.356 152.881 211.333 151.997 211.35 151.465V140.837H213.366V159.357ZM137.767 35.6913C137.073 36.2923 136.235 36.7473 135.443 37.2503C135.023 37.7243 135.443 38.5783 135.61 39.2423C135.761 39.8493 135.767 40.5053 135.875 40.9683C135.956 41.3163 136.117 41.6093 136.174 41.9643C136.239 42.3533 136.225 42.7753 136.307 43.1583C136.386 43.5303 136.6 43.8733 136.673 44.2213C136.797 44.8243 136.791 45.4493 136.971 46.0793C137.146 46.6983 137.136 47.3283 137.303 47.9373C137.398 48.2853 137.543 48.5643 137.602 48.9003C137.665 49.2673 137.659 49.6443 137.733 50.0293C137.824 50.4933 138.022 50.9213 138.099 51.3883C138.124 51.5493 138.107 51.7243 138.132 51.8873C138.221 52.4473 138.472 52.9893 138.564 53.5453C138.666 54.1743 138.708 54.7353 138.896 55.3383C139.081 55.9393 139.134 56.5723 139.195 57.1983C139.539 57.7233 139.485 58.4103 139.592 59.0903C139.67 59.5733 139.955 60.1563 140.024 60.5493C140.122 61.1073 140.116 61.6753 140.289 62.2763C140.45 62.8303 140.491 63.4013 140.621 63.9673C140.737 64.4623 140.898 65.0083 140.986 65.5953C141.076 66.1813 141.155 66.8423 141.351 67.2533C141.564 67.6933 142.169 68.1823 142.646 68.5143C143.133 68.8523 143.677 69.3593 144.272 69.4433C145.015 69.5493 145.337 69.0403 145.965 68.9133C146.297 68.4883 146.916 68.4393 147.059 67.8833C147.161 67.4873 146.796 67.0273 146.694 66.5563C146.661 66.4013 146.698 66.2323 146.661 66.0593C146.586 65.6953 146.319 65.2953 146.23 64.8653C146.14 64.4303 146.119 64.0123 145.997 63.6683C145.928 63.4703 145.808 63.3253 145.765 63.1383C145.734 62.9953 145.761 62.8453 145.734 62.7063C145.612 62.1253 145.272 61.6413 145.201 61.0803C145.187 60.9663 145.221 60.8583 145.201 60.7503C145.133 60.3713 144.883 60.0413 144.803 59.6873C144.738 59.3983 144.781 59.0943 144.704 58.8233C144.632 58.5733 144.449 58.3553 144.372 58.0923C144.258 57.7053 144.266 57.2853 144.139 56.8983C144.054 56.6423 143.934 56.4483 143.873 56.2013C143.811 55.9413 143.811 55.6553 143.742 55.3723C143.669 55.0793 143.485 54.8473 143.41 54.5743C143.351 54.3623 143.384 54.1583 143.343 53.9123C143.276 53.5143 143.005 53.1423 142.911 52.7493C142.823 52.3843 142.84 52.0293 142.713 51.6873C142.665 51.5633 142.557 51.4593 142.514 51.3223C142.404 50.9943 142.373 50.5853 142.281 50.2273C142.188 49.8723 142.033 49.5383 141.949 49.1983C141.886 48.9473 141.909 48.6843 141.85 48.4363C141.778 48.1403 141.558 47.8653 141.485 47.5723C141.446 47.4213 141.481 47.2663 141.452 47.1083C141.351 46.5943 141.102 46.1013 140.986 45.5823C140.923 45.2993 140.888 45.0203 140.821 44.7513C140.754 44.4923 140.595 44.2803 140.523 44.0233C140.448 43.7673 140.489 43.4813 140.422 43.2253C140.338 42.9013 140.106 42.5853 140.024 42.2293C139.929 41.8213 139.925 41.4003 139.792 41.0353C139.741 40.8943 139.635 40.7803 139.592 40.6363C139.503 40.3263 139.503 39.9863 139.427 39.6743C139.356 39.3793 139.173 39.1283 139.095 38.8433C139.002 38.5093 139.028 38.1463 138.928 37.8163C138.853 37.5613 138.696 37.3623 138.629 37.1193C138.501 36.6293 138.521 36.1173 138.333 35.7573C138.209 35.6813 137.924 35.5263 137.767 35.6913ZM107.267 53.1483C107.171 53.4623 107.179 53.7983 107.102 54.1113C107.031 54.3943 106.851 54.6593 106.77 54.9403C106.674 55.2773 106.692 55.6293 106.603 55.9693C106.513 56.3163 106.271 56.6233 106.206 56.9653C106.161 57.1873 106.193 57.4013 106.138 57.5953C106.053 57.9093 105.865 58.1653 105.774 58.4913C105.704 58.7443 105.741 59.0273 105.674 59.2883C105.621 59.4963 105.48 59.6693 105.409 59.8833C105.289 60.2573 105.275 60.7143 105.177 61.1463C105.083 61.5573 104.82 61.9383 104.745 62.3073C104.708 62.4943 104.757 62.6923 104.712 62.8713C104.659 63.0873 104.45 63.3863 104.38 63.6373C104.254 64.0913 104.209 64.5803 104.048 65.0633C103.887 65.5423 103.83 66.0003 103.716 66.4893C103.618 66.9053 103.156 67.4183 103.317 67.9173C103.423 68.2413 104.187 68.7543 104.447 68.9133C104.814 69.1373 105.584 69.5433 106.173 69.4433C106.311 69.4193 106.476 69.2663 106.703 69.1443C106.9 69.0403 107.163 68.9993 107.3 68.9133C107.562 68.7463 107.913 68.3783 108.196 68.1153C108.491 67.8443 108.903 67.5363 109.027 67.2533C109.104 67.0763 109.096 66.8353 109.159 66.6243C109.351 65.9703 109.379 65.3693 109.524 64.6313C109.624 64.1263 109.84 63.6273 109.923 63.1053C109.956 62.8873 109.944 62.6653 109.987 62.4413C110.064 62.0563 110.237 61.6853 110.319 61.2803C110.408 60.8503 110.394 60.3803 110.486 59.9523C110.589 59.4773 110.801 59.0293 110.883 58.5583C110.948 58.2023 110.905 57.8153 110.985 57.4623C111.034 57.2453 111.162 57.0553 111.215 56.8333C111.272 56.6013 111.313 56.3543 111.351 56.1023C111.443 55.4363 111.653 54.7023 111.781 54.1773C111.824 54.0013 111.824 53.8123 111.848 53.6143C111.928 52.8973 112.121 52.2533 112.244 51.6533C112.445 50.6913 112.722 49.7423 112.843 48.8663C112.869 48.6863 112.841 48.5093 112.877 48.3363C112.959 47.9143 113.166 47.5423 113.24 47.1423C113.311 46.7693 113.254 46.3863 113.34 46.0463C113.442 45.6513 113.574 45.3213 113.639 44.9503C113.71 44.5513 113.721 44.1483 113.806 43.7243C113.88 43.3433 114.065 42.9703 114.136 42.5613C114.212 42.1353 114.216 41.6723 114.303 41.2343C114.348 41.0063 114.562 40.6273 114.635 40.3383C114.733 39.9533 114.729 39.4033 114.835 38.9433C114.933 38.5033 115.202 37.8833 115.165 37.6493C115.126 37.3923 114.702 37.0853 114.401 36.9183C114.087 36.7433 113.696 36.5313 113.441 36.3553C113.093 36.1153 112.584 35.4183 112.046 35.6913C111.865 36.0703 111.944 36.5003 111.814 36.8873C111.763 37.0363 111.631 37.1683 111.58 37.3173C111.463 37.6743 111.488 38.0893 111.382 38.4783C111.282 38.8513 111.058 39.2013 110.985 39.5403C110.94 39.7493 110.973 39.9673 110.918 40.1713C110.84 40.4623 110.628 40.7413 110.553 41.0353C110.449 41.4383 110.455 41.8293 110.353 42.2293C110.003 42.6913 110.09 43.2983 109.923 43.8223C109.858 44.0313 109.716 44.1943 109.656 44.3863C109.587 44.6183 109.573 44.8503 109.524 45.1173C109.439 45.5703 109.218 45.9633 109.092 46.4113C108.99 46.7783 109.031 47.1673 108.893 47.5393C108.842 47.6763 108.744 47.7963 108.695 47.9373C108.599 48.2143 108.615 48.5543 108.528 48.8663C108.398 49.3323 108.137 49.7623 108.063 50.1613C107.953 50.7703 107.964 51.1533 107.666 51.5553C107.713 52.1863 107.426 52.6283 107.267 53.1483ZM109.524 38.6453C109.601 38.2723 109.846 37.9303 109.923 37.5823C109.958 37.4213 109.923 37.2423 109.956 37.0853C110.035 36.7063 110.251 36.3783 110.353 36.0233C110.424 35.7833 110.422 35.4843 110.486 35.1943C110.549 34.9213 110.712 34.6183 110.685 34.4303C110.644 34.1313 110.151 33.9273 109.956 33.7323C109.671 33.4513 109.493 33.2023 109.159 33.0683C109.041 32.7783 108.725 32.4853 108.33 32.6703C108.015 33.1313 108.086 33.9783 107.666 34.3313C107.452 35.6203 106.819 36.4943 106.603 37.7823C106.201 38.3093 106.218 39.2543 105.774 39.7413C105.798 40.4663 105.332 40.9843 105.211 41.4653C105.179 41.5833 105.215 41.7323 105.177 41.8643C105.095 42.1393 104.855 42.3573 104.778 42.6283C104.723 42.8173 104.763 43.0413 104.712 43.2253C104.637 43.4883 104.437 43.7043 104.346 43.9563C104.285 44.1273 104.303 44.3133 104.248 44.4863C104.087 44.9713 103.718 45.4963 103.716 46.1463C103.347 46.4643 103.394 46.9673 103.252 47.4073C103.178 47.6393 102.987 47.8393 102.918 48.0713C102.859 48.2813 102.877 48.4773 102.82 48.6683C102.749 48.8983 102.559 49.0493 102.455 49.2983C102.329 49.5993 102.366 49.9823 102.255 50.2943C102.198 50.4633 102.056 50.5993 101.989 50.7583C101.909 50.9603 101.926 51.1743 101.858 51.3883C101.769 51.6553 101.538 51.8853 101.459 52.1523C101.39 52.3863 101.424 52.6343 101.359 52.8503C101.286 53.0953 101.115 53.2943 101.027 53.5453C100.905 53.8973 100.809 54.2253 100.664 54.5743C100.512 54.9363 100.447 55.3253 100.365 55.7043C100.206 55.9413 100.088 56.2203 99.9978 56.4993C99.7858 57.1673 99.5238 57.8503 99.3688 58.5913C98.9998 58.8603 99.0858 59.3843 98.9368 59.8193C98.8408 60.0993 98.6368 60.3023 98.5718 60.5833C98.5418 60.7123 98.5758 60.8793 98.5378 61.0153C98.4618 61.2883 98.2218 61.4983 98.1398 61.7453C98.0608 61.9853 98.0488 62.2483 97.9748 62.4743C97.8978 62.7023 97.7508 62.8833 97.6758 63.1053C97.6008 63.3193 97.6188 63.5433 97.5418 63.7353C97.4908 63.8673 97.3698 63.9593 97.3108 64.1003C97.1768 64.4193 97.1868 64.7963 97.0788 65.1303C96.9958 65.3773 96.7838 65.6863 96.6798 66.0253C96.6268 66.1943 96.6348 66.3693 96.5798 66.5223C96.5068 66.7273 96.3478 66.8803 96.2808 67.0553C95.9928 67.8113 96.2398 68.0783 96.7138 68.4813C97.0118 68.7363 97.2988 68.9303 97.6428 69.1113C97.7468 69.1663 97.8228 69.2723 97.9098 69.3113C98.8408 69.7303 99.5578 69.1373 100.165 68.8793C100.457 68.6513 100.756 68.3553 101.027 68.1493C101.139 68.0643 101.3 68.0373 101.392 67.9503C101.53 67.8213 101.532 67.6693 101.626 67.4853C101.693 67.3513 101.801 67.2673 101.824 67.1863C101.879 66.9963 101.846 66.7503 101.891 66.5563C101.981 66.1673 102.174 65.8093 102.255 65.3953C102.298 65.1753 102.327 64.9633 102.388 64.7643C102.447 64.5823 102.557 64.4213 102.62 64.2323C102.749 63.8493 102.785 63.3933 102.887 62.9733C102.985 62.5613 103.213 62.1763 103.284 61.8103C103.319 61.6303 103.268 61.4273 103.317 61.2473C103.392 60.9813 103.616 60.7423 103.682 60.4823C103.751 60.2213 103.718 59.9443 103.783 59.6873C103.842 59.4513 103.936 59.2293 104.014 58.9903C104.177 58.4873 104.197 57.9703 104.346 57.4973C104.449 57.1773 104.647 56.9313 104.712 56.6333C104.792 56.2543 104.704 55.8803 104.943 55.7043C105.118 55.2753 105.114 54.8413 105.211 54.4093C105.277 54.0933 105.49 53.7913 105.574 53.4473C105.67 53.0623 105.656 52.6283 105.774 52.2863C105.821 52.1463 105.957 52.0333 106.006 51.8873C106.134 51.5083 106.157 51.1043 106.206 50.6913C106.593 50.2693 106.495 49.6953 106.637 49.1313C106.692 48.9113 106.861 48.7273 106.935 48.5013C107.086 48.0493 107.092 47.4603 107.267 46.9433C107.434 46.4523 107.648 46.0343 107.666 45.4493C107.703 45.3213 107.809 45.2623 107.864 45.1503C107.923 44.2213 108.316 43.5203 108.497 42.7933C108.56 42.5343 108.528 42.2733 108.593 42.0313C108.656 41.8033 108.823 41.6053 108.893 41.3673C108.999 41.0103 109.017 40.5953 109.092 40.2043C109.402 39.8113 109.4 39.2503 109.524 38.6453ZM143.243 35.8913C143.164 35.7003 143.017 35.5513 142.944 35.3253C142.856 35.0523 142.825 34.7093 142.713 34.4303C142.671 34.3273 142.557 34.2373 142.514 34.1313C142.214 33.4143 142.334 32.4073 141.55 32.6053C141.45 32.7563 141.298 32.8623 141.218 33.0353C140.965 33.2333 140.707 33.4283 140.389 33.6993C140.195 33.8663 139.662 34.1823 139.625 34.4303C139.566 34.8463 139.945 35.2293 140.024 35.5903C140.104 35.9703 140.087 36.3373 140.222 36.6863C140.273 36.8143 140.381 36.9143 140.422 37.0523C140.509 37.3333 140.491 37.6453 140.554 37.9473C140.607 38.1953 140.76 38.4133 140.855 38.6783C140.984 39.0453 140.947 39.4743 141.053 39.8393C141.153 40.1813 141.387 40.4693 141.452 40.8033C141.489 40.9923 141.448 41.1963 141.485 41.3673C141.552 41.6853 141.754 41.9333 141.85 42.2633C141.982 42.7263 141.998 43.2233 142.147 43.6913C142.22 43.9093 142.33 44.1073 142.381 44.3213C142.483 44.7553 142.514 45.1913 142.713 45.4493C142.811 45.8103 142.834 46.1623 142.911 46.5433C142.997 46.9653 143.261 47.3463 143.343 47.7373C143.404 48.0343 143.408 48.3013 143.477 48.5703C143.54 48.8173 143.648 49.0373 143.742 49.2983C143.85 49.6033 143.893 50.0133 144.007 50.3923C144.115 50.7583 144.274 51.1233 144.339 51.4553C144.366 51.6063 144.347 51.7503 144.372 51.8873C144.441 52.2643 144.657 52.5493 144.738 52.8503C144.814 53.1463 144.785 53.5353 144.869 53.8123C144.94 54.0463 145.117 54.2643 145.201 54.5413C145.315 54.9123 145.337 55.3233 145.402 55.7043C145.755 56.1343 145.7 56.7153 145.832 57.2633C145.9 57.5503 146.13 57.8273 146.197 58.1593C146.252 58.4423 146.215 58.7683 146.295 59.0233C146.384 59.2923 146.6 59.5183 146.661 59.7873C146.792 60.3473 146.729 60.8733 147.059 61.3113C147.122 62.0183 147.381 62.6803 147.556 63.2033C147.655 63.4923 147.645 63.8063 147.723 64.1003C147.812 64.4343 148.022 64.7353 148.089 65.0633C148.12 65.2143 148.091 65.3753 148.12 65.5263C148.189 65.8493 148.369 66.2493 148.487 66.6243C148.609 67.0093 148.611 67.4533 148.752 67.7173C148.855 67.9033 149.132 68.0173 149.35 68.1823C150.01 68.6833 150.615 69.1113 151.341 69.4433H152.039C152.323 69.2783 152.744 69.1743 153.099 68.9463C153.455 68.7163 154.238 67.9973 154.262 67.7173C154.282 67.4893 154.001 67.1533 153.897 66.8543C153.802 66.5833 153.814 66.2673 153.696 65.9923C153.645 65.8723 153.547 65.7803 153.498 65.6603C153.37 65.3483 153.406 65.0083 153.3 64.7313C153.235 64.5663 153.072 64.4343 153.001 64.2653C152.901 64.0363 152.842 63.7333 152.769 63.4703C152.691 63.1933 152.557 62.9633 152.469 62.7063C152.365 62.4033 152.335 62.0583 152.204 61.7453C152.141 61.5943 152.023 61.4703 151.972 61.3113C151.901 61.0973 151.909 60.8503 151.84 60.6163C151.74 60.2863 151.512 59.9893 151.439 59.6873C151.418 59.5893 151.438 59.4553 151.408 59.3533C151.329 59.0983 151.094 58.8423 151.009 58.5583C150.941 58.3263 150.984 58.0703 150.909 57.8603C150.842 57.6683 150.652 57.5223 150.577 57.3303C150.475 57.0593 150.495 56.7133 150.379 56.4343C150.277 56.1913 150.112 55.9963 150.047 55.7373C149.998 55.5453 150.013 55.3263 149.947 55.1403C149.841 54.8473 149.615 54.6473 149.548 54.4093C149.517 54.2913 149.544 54.1583 149.515 54.0443C149.436 53.7163 149.24 53.4553 149.149 53.2153C149.079 53.0173 149.11 52.8013 149.051 52.5853C148.996 52.3843 148.87 52.2003 148.786 52.0193C148.684 51.8053 148.646 51.6383 148.586 51.3883C148.442 50.7933 148.11 50.4223 148.089 49.7953C147.731 49.4063 147.745 48.8923 147.556 48.3363C147.49 48.1343 147.34 47.9513 147.26 47.7373C147.165 47.4853 147.165 47.1813 147.059 46.9083C147.008 46.7763 146.914 46.6723 146.861 46.5433C146.725 46.2133 146.725 45.8413 146.596 45.4803C146.517 45.2683 146.299 45.1093 146.23 44.8853C146.187 44.7443 146.229 44.5843 146.197 44.4533C146.128 44.1683 145.94 43.9463 145.832 43.6573C145.704 43.3143 145.681 42.9153 145.567 42.5613C145.246 42.2333 145.248 41.7253 145.07 41.2673C144.993 41.0723 144.858 40.8663 144.803 40.6703C144.759 40.5073 144.785 40.3263 144.738 40.1713C144.665 39.9353 144.457 39.7563 144.372 39.5073C144.272 39.2143 144.288 38.8693 144.172 38.5783C144.029 38.2193 143.74 37.8023 143.742 37.3173C143.339 37.0113 143.451 36.3883 143.243 35.8913ZM127.81 29.7163C127.742 29.7023 127.52 29.7733 127.378 29.7843C126.718 29.8373 125.711 30.0083 124.725 29.9183C123.752 29.8263 122.723 29.4783 122.368 29.9493C122.216 30.8433 121.708 31.6013 121.969 32.7033C122.138 32.9333 122.301 33.1693 122.368 33.5013C122.692 33.7483 122.841 34.2143 123.132 34.4303C123.633 34.8073 124.348 35.1173 125.123 35.1603C126.905 35.2583 127.989 34.4223 128.606 33.2693C128.559 32.8193 128.883 32.6233 128.873 32.2403C128.867 31.9763 128.683 31.8023 128.606 31.5443C128.518 31.2323 128.486 30.9263 128.408 30.6133C128.107 30.4973 128.229 29.8083 127.81 29.7163ZM104.91 28.1913C104.771 28.1933 104.464 28.5473 104.38 28.7553C104.301 28.9483 104.327 29.1993 104.248 29.4193C104.113 29.7963 103.665 30.2853 103.716 30.7453C103.508 31.0363 103.305 31.3303 103.284 31.8073C103.109 31.9763 103.056 32.2633 102.887 32.4383C102.924 32.9743 102.612 33.1903 102.455 33.5343C102.347 33.7683 102.361 34.0843 102.255 34.3313C102.166 34.5423 101.958 34.7053 101.891 34.9293C101.832 35.1213 101.866 35.3153 101.791 35.4923C101.707 35.6973 101.532 35.8463 101.459 36.0563C101.412 36.1913 101.439 36.3473 101.392 36.4883C101.318 36.7223 101.121 36.8993 101.027 37.1193C100.907 37.3973 100.915 37.7293 100.795 38.0143C100.652 38.3563 100.343 38.6373 100.398 39.0433C100.09 39.3223 100.086 39.6963 99.9658 40.1063C99.8988 40.3323 99.7028 40.5033 99.6008 40.7373C99.5108 40.9373 99.4578 41.1843 99.3688 41.3993C99.2018 41.8073 98.9878 42.1673 98.9368 42.6613C98.6308 42.8933 98.6458 43.2553 98.5378 43.5893C98.4578 43.8383 98.2178 44.1093 98.1078 44.4193C98.0238 44.6533 98.0388 44.9203 97.9408 45.1173C97.8838 45.2313 97.7618 45.3073 97.7088 45.4153C97.6068 45.6253 97.6128 45.9123 97.5088 46.1773C97.4168 46.4213 97.2198 46.6493 97.1438 46.8753C97.0888 47.0463 97.1098 47.2403 97.0458 47.4073C96.9708 47.5943 96.7898 47.7253 96.7138 47.9043C96.6328 48.0923 96.6488 48.3073 96.5798 48.5013C96.4168 48.9683 96.0748 49.3933 96.0498 49.8963C95.6248 50.3123 95.6348 51.1643 95.2188 51.5893C95.2008 52.0563 94.9928 52.3353 94.7888 52.6183C94.8458 53.0523 94.5628 53.3313 94.4568 53.5453C94.2898 53.8813 94.2678 54.2723 94.1248 54.6083C94.0578 54.7673 93.9218 54.8853 93.8598 55.0403C93.7848 55.2223 93.8008 55.4483 93.7258 55.6373C93.6418 55.8553 93.4428 56.0493 93.3628 56.2673C93.2248 56.6333 93.2448 57.0653 92.9288 57.3303C92.8848 57.7863 92.7068 58.1023 92.5318 58.4243C92.3158 58.8623 92.2708 59.4713 91.9348 59.7873C91.9838 60.3103 91.6278 60.6063 91.5028 60.9153C91.4298 61.0913 91.4398 61.3073 91.3708 61.5123C91.2898 61.7453 91.1018 61.9203 91.0058 62.1423C90.9248 62.3253 90.9368 62.6023 90.8388 62.8383C90.7308 63.1013 90.4948 63.3013 90.4418 63.5373C90.3258 64.0263 90.3118 64.3013 90.0098 64.5663C90.1238 64.9713 89.7508 65.2243 89.6108 65.5623C89.4888 65.8563 89.4988 66.2083 89.3788 66.4893C89.2988 66.6793 89.1118 66.8113 89.0468 66.9883C89.0038 67.1043 89.0318 67.3043 88.9808 67.4513C88.9158 67.6383 88.7718 67.7183 88.7818 67.8833C88.7878 68.0113 89.0198 68.3513 89.0808 68.4143C89.2158 68.5593 89.5068 68.7263 89.7448 68.8793C90.0058 69.0483 90.5718 69.3983 90.8048 69.4433C91.4988 69.5773 92.0228 69.2663 92.3978 69.0803C92.7578 68.8993 92.8888 68.7633 93.1618 68.5833C93.6948 68.2253 94.3128 67.8013 94.5898 67.2863C94.6868 67.0073 94.7318 66.6763 94.7888 66.3573C95.0928 66.0513 95.0598 65.6343 95.2188 65.1953C95.3288 64.8983 95.5408 64.6333 95.6198 64.3323C95.6528 64.1973 95.6178 64.0383 95.6508 63.9003C95.7118 63.6593 95.9118 63.3933 96.0158 63.1053C96.1318 62.7843 96.1658 62.4093 96.2808 62.1763C96.3228 62.0933 96.4128 62.0603 96.4458 61.9773C96.5838 61.6453 96.5638 61.2473 96.6798 60.9153C96.7508 60.7123 96.9358 60.5553 97.0118 60.3493C97.1728 59.9133 97.1058 59.3493 97.4758 59.0233C97.5028 58.1103 98.0588 57.7253 98.1078 56.8333C98.4218 56.4953 98.4068 56.0163 98.5718 55.5373C98.6618 55.2773 98.8598 55.0633 98.9368 54.8083C98.9978 54.6083 98.9648 54.3823 99.0368 54.1773C99.1138 53.9553 99.2928 53.7653 99.3688 53.5143C99.4478 53.2483 99.4648 52.9343 99.5678 52.6833C99.6048 52.5903 99.7288 52.5123 99.7658 52.4183C99.9148 52.0503 99.9028 51.6533 100.033 51.2883C100.108 51.0763 100.292 50.9193 100.365 50.6913C100.495 50.2793 100.459 49.8133 100.795 49.4973C100.834 48.5953 101.347 48.1693 101.426 47.3073C101.543 47.0493 101.74 46.8333 101.824 46.5433C101.881 46.3423 101.832 46.1163 101.891 45.9143C101.96 45.6783 102.182 45.4823 102.255 45.2503C102.306 45.0913 102.278 44.9143 102.323 44.7513C102.475 44.1993 102.885 43.7023 102.887 43.0943C103.264 42.7323 103.18 42.3063 103.317 41.8313C103.374 41.6423 103.545 41.4833 103.616 41.3003C103.751 40.9593 103.759 40.5623 103.914 40.2043C103.957 40.1083 104.075 40.0393 104.115 39.9393C104.258 39.5843 104.238 39.1673 104.38 38.8123C104.441 38.6583 104.584 38.5603 104.645 38.4133C104.729 38.2133 104.684 37.9673 104.745 37.7493C104.818 37.4923 105.059 37.2843 105.144 37.0183C105.203 36.8323 105.16 36.6163 105.211 36.4213C105.271 36.1823 105.462 35.9643 105.574 35.6913C105.686 35.4223 105.676 35.0993 105.774 34.8623C105.892 34.5753 106.073 34.3333 106.138 34.0643C106.185 33.8783 106.144 33.7053 106.206 33.5343C106.283 33.3163 106.532 33.0683 106.603 32.8033C106.629 32.7033 106.584 32.5853 106.603 32.4713C106.694 31.9703 107.34 31.2693 107.002 30.7803C106.833 30.7043 106.77 30.5253 106.603 30.4483C106.226 29.8633 105.782 29.3443 105.376 28.7883C105.179 28.6003 105.238 28.1843 104.91 28.1913ZM143.742 32.3403C143.854 32.6443 143.832 33.0023 143.94 33.3023C144.031 33.5543 144.227 33.7503 144.306 33.9973C144.359 34.1663 144.347 34.3613 144.406 34.5303C144.471 34.7183 144.638 34.8893 144.704 35.0943C144.795 35.3743 144.763 35.7143 144.869 35.9893C144.934 36.1543 145.099 36.2883 145.168 36.4553C145.288 36.7473 145.339 37.0993 145.402 37.4173C145.757 37.8223 145.708 38.4273 145.899 38.9103C145.967 39.0893 146.138 39.2283 146.197 39.4093C146.248 39.5663 146.217 39.7453 146.264 39.9063C146.35 40.2023 146.564 40.4663 146.661 40.7683C146.723 40.9643 146.69 41.2063 146.761 41.3993C146.92 41.8383 147.315 42.2083 147.26 42.8263C147.609 43.3213 147.694 43.9973 147.922 44.4533C148.093 44.7933 148.102 45.2503 148.254 45.6493C148.314 45.8043 148.426 45.9243 148.487 46.0793C148.607 46.3883 148.637 46.7253 148.752 47.0423C148.815 47.2113 148.953 47.3583 149.018 47.5393C149.122 47.8253 149.11 48.1613 149.218 48.4363C149.3 48.6503 149.485 48.8133 149.548 49.0333C149.646 49.3653 149.65 49.6933 149.782 49.9963C149.831 50.1083 149.935 50.1763 149.98 50.2943C150.088 50.5693 150.063 50.9133 150.178 51.1903C150.351 51.5983 150.656 51.9303 150.577 52.3863C150.943 52.7363 150.893 53.2433 151.043 53.7123C151.115 53.9463 151.329 54.1423 151.408 54.3763C151.516 54.7003 151.494 55.0343 151.64 55.3383C151.689 55.4423 151.795 55.5233 151.84 55.6373C151.944 55.9063 151.97 56.2443 152.039 56.5323C152.341 56.8743 152.394 57.3593 152.535 57.8293C152.61 58.0683 152.742 58.2793 152.834 58.5243C152.944 58.8153 152.95 59.1613 153.068 59.4553C153.119 59.5853 153.245 59.6873 153.3 59.8193C153.413 60.0963 153.384 60.4693 153.498 60.7813C153.602 61.0623 153.793 61.2943 153.863 61.5453C153.899 61.6753 153.887 61.8083 153.93 61.9443C154.024 62.2293 154.258 62.4863 154.329 62.7733C154.382 62.9953 154.337 63.1953 154.394 63.3703C154.456 63.5583 154.639 63.6843 154.726 63.9003C154.836 64.1713 154.81 64.4823 154.926 64.7643C154.981 64.9003 155.107 65.0243 155.158 65.1613C155.272 65.4643 155.262 65.8153 155.389 66.1263C155.549 66.5093 155.882 66.8393 155.788 67.2863C155.983 67.3813 156.016 67.6733 156.187 67.8523C156.283 67.9523 156.483 68.0013 156.619 68.1153C156.753 68.2293 156.829 68.4043 156.949 68.4813C157.049 68.5433 157.2 68.5433 157.314 68.6143C157.418 68.6773 157.477 68.8113 157.581 68.8793C157.752 68.9973 158.018 69.0483 158.212 69.1443C158.359 69.2193 158.442 69.3373 158.544 69.3763C159.218 69.6413 159.791 69.3213 160.17 69.1113C160.616 68.8643 160.789 68.7633 161.133 68.4813C161.388 68.2703 161.582 68.1113 161.529 67.6853C161.455 67.0683 160.958 66.7153 160.966 66.0593C160.848 65.8333 160.616 65.6193 160.534 65.3613C160.496 65.2423 160.528 65.1023 160.502 64.9963C160.386 64.5383 159.952 64.1003 159.937 63.5373C159.569 63.2383 159.607 62.6923 159.44 62.2763C159.361 62.0813 159.172 61.9423 159.108 61.7453C159.06 61.6003 159.092 61.4233 159.041 61.2803C158.962 61.0623 158.756 60.8933 158.676 60.6833C158.581 60.4313 158.558 60.1193 158.444 59.8523C158.294 59.5063 158.012 59.2763 158.045 58.8233C157.754 58.5613 157.762 58.2263 157.648 57.8293C157.564 57.5463 157.328 57.3183 157.216 57.0313C157.145 56.8573 157.155 56.6483 157.083 56.4683C157.022 56.3113 156.884 56.1593 156.817 56.0023C156.717 55.7723 156.707 55.5193 156.619 55.2713C156.48 54.8903 156.116 54.6023 156.153 54.0773C155.871 53.8323 155.867 53.4703 155.755 53.1483C155.641 52.8143 155.393 52.4573 155.291 52.1863C155.217 51.9893 155.232 51.7753 155.158 51.5893C155.097 51.4373 154.959 51.3123 154.892 51.1573C154.814 50.9783 154.802 50.7723 154.726 50.5933C154.621 50.3473 154.449 50.1473 154.36 49.8963C154.297 49.7053 154.307 49.5113 154.229 49.3323C154.144 49.1413 153.975 49.0043 153.897 48.8003C153.836 48.6423 153.85 48.4623 153.798 48.3033C153.645 47.8553 153.276 47.4623 153.3 46.9433C152.97 46.7043 152.975 46.3173 152.867 45.9793C152.797 45.7573 152.636 45.5233 152.535 45.2823C152.424 45.0173 152.41 44.7103 152.304 44.4863C152.245 44.3603 152.129 44.2743 152.072 44.1543C151.948 43.9053 151.942 43.6123 151.84 43.3573C151.762 43.1703 151.61 43.0073 151.54 42.8263C151.455 42.6103 151.457 42.3713 151.375 42.1633C151.278 41.9273 151.082 41.7603 151.009 41.5323C150.966 41.3973 150.992 41.2433 150.943 41.1003C150.868 40.8883 150.662 40.7093 150.577 40.5033C150.477 40.2573 150.503 39.9823 150.379 39.7413C150.334 39.6543 150.226 39.6033 150.178 39.5073C150.059 39.2543 150.074 38.9673 149.98 38.7123C149.874 38.4193 149.638 38.1753 149.548 37.8833C149.487 37.6803 149.491 37.5133 149.416 37.3503C149.348 37.1993 149.22 37.0873 149.149 36.9183C149.075 36.7303 149.096 36.4963 149.018 36.2903C148.931 36.0563 148.737 35.8543 148.652 35.6243C148.578 35.4223 148.572 35.1923 148.487 34.9933C148.332 34.6363 148.016 34.3593 148.089 33.9333C147.719 33.5993 147.737 32.9663 147.491 32.5053C147.433 32.3973 147.309 32.3303 147.26 32.2063C147.156 31.9593 147.177 31.6503 147.059 31.4093C146.963 31.2103 146.759 31.0613 146.694 30.8453C146.635 30.6493 146.659 30.4273 146.596 30.2483C146.515 30.0223 146.299 29.8713 146.23 29.6513C146.193 29.5313 146.217 29.3403 146.164 29.1853C146.113 29.0343 145.952 28.8673 145.865 28.6883C145.726 28.4023 145.712 28.1683 145.466 28.1583C144.761 29.0443 144.16 30.0383 143.343 30.8123C143.174 31.4053 143.563 31.8533 143.742 32.3403ZM101.824 24.6053C101.765 24.7363 101.634 24.8393 101.559 24.9703C101.477 25.1193 101.471 25.2883 101.392 25.4693C101.245 25.8093 100.988 26.1393 100.829 26.4983C100.644 26.9133 100.447 27.2863 100.365 27.6593C100.235 27.8183 100.137 28.0093 99.9978 28.1583C99.9558 28.5473 99.7778 28.7983 99.5678 29.0203C99.4988 29.6703 99.0038 29.8943 98.9368 30.5463C98.5398 30.8693 98.5478 31.5973 98.1398 31.9083C98.1358 32.3503 97.7818 32.6363 97.6428 32.9033C97.5328 33.1163 97.5438 33.3833 97.4438 33.6013C97.3788 33.7363 97.2378 33.8333 97.1768 33.9663C97.0238 34.3043 96.9808 34.6873 96.6798 34.9293C96.6508 35.3413 96.4428 35.5773 96.2478 35.8243C96.2128 36.0663 96.0908 36.2213 96.0498 36.4553C95.4958 37.0733 95.3518 38.1033 94.7888 38.7123C94.8278 39.0873 94.5528 39.3113 94.3898 39.6073C94.2618 39.8413 94.2488 40.1323 94.1248 40.3713C94.0678 40.4813 93.9438 40.5323 93.8928 40.6363C93.7988 40.8233 93.8138 41.0353 93.7258 41.2343C93.6398 41.4303 93.4468 41.5653 93.3628 41.7663C93.3058 41.8953 93.3158 42.0413 93.2608 42.1633C93.1918 42.3203 93.0458 42.4343 92.9618 42.5953C92.8618 42.7893 92.8378 43.0313 92.7298 43.2253C92.6688 43.3393 92.5628 43.4103 92.4978 43.5243C92.3878 43.7203 92.3668 43.9563 92.2648 44.1543C92.1818 44.3213 92.0068 44.4453 91.9348 44.6183C91.8028 44.9323 91.7678 45.2703 91.4688 45.4803C91.2568 46.4743 90.5948 47.0183 90.4088 48.0373C90.0038 48.6293 89.6658 49.2873 89.4128 50.0293C89.2008 50.2493 89.0098 50.4913 88.9808 50.8913C88.5658 51.5063 88.2188 52.1863 87.9508 52.9503C87.3838 53.6083 87.2718 54.7233 86.6898 55.3723C86.6198 56.0223 86.1328 56.2523 86.0598 56.8983C85.9048 57.0203 85.8398 57.2303 85.6948 57.3633C85.4648 58.2833 84.8698 58.8383 84.6318 59.7523C84.2098 60.1033 84.2018 60.8693 83.8028 61.2473C83.7948 61.6713 83.5928 61.8993 83.4038 62.1423C83.3668 62.5473 83.0368 62.8183 82.8738 63.1713C82.8028 63.3253 82.8168 63.5133 82.7398 63.6683C82.6638 63.8243 82.4848 63.9413 82.4078 64.1003C82.2608 64.4093 82.2748 64.8063 81.9448 64.9963C81.9528 65.4133 81.6418 65.6543 81.4788 65.9593C81.4068 66.0963 81.4048 66.3403 81.3138 66.5223C81.1238 66.9133 80.7348 67.0393 80.8818 67.6503C81.4498 68.3183 82.3808 69.1443 83.5038 69.1443C83.9538 69.1443 84.3508 68.9833 84.8658 68.9133C85.1008 68.7063 85.3308 68.4943 85.7608 68.4813C86.0928 68.1493 86.5328 67.9273 86.9218 67.6503C87.0788 67.3123 87.3188 67.0533 87.5188 66.7543C87.4188 66.2963 87.8058 65.9963 87.9508 65.6273C88.0478 65.3833 88.0438 65.0983 88.1518 64.8653C88.2378 64.6723 88.3478 64.5423 88.4168 64.3663C88.4918 64.1693 88.5028 63.9473 88.5818 63.7353C88.6718 63.4923 88.9058 63.2913 88.9808 63.0383C89.0158 62.9183 88.9788 62.7863 89.0138 62.6733C89.0928 62.4153 89.2968 62.2483 89.4128 62.0093C89.4398 61.2193 89.9738 60.9343 90.0098 60.1513C90.4278 59.7733 90.3648 58.9133 90.8048 58.5583C90.8978 57.7423 91.3768 57.3163 91.4688 56.4993C91.7248 56.2673 91.8778 55.9353 91.9008 55.4723C92.3058 55.0573 92.2608 54.1913 92.6988 53.8123C92.7658 53.2433 93.0598 52.8063 93.2288 52.3173C93.2818 52.1663 93.2678 51.9783 93.3268 51.8203C93.4468 51.5123 93.8538 51.2573 93.7588 50.8253C94.1418 50.0233 94.5428 49.2413 94.7888 48.3033C95.0868 48.0303 95.0868 47.6193 95.2188 47.2403C95.2948 47.0223 95.5038 46.8293 95.5838 46.6113C95.6588 46.4133 95.6328 46.1713 95.7178 45.9793C95.8138 45.7613 95.9768 45.5943 96.0498 45.3823C96.1378 45.1323 96.1438 44.8593 96.2478 44.6203C96.3088 44.4823 96.4558 44.3903 96.5148 44.2523C96.5978 44.0583 96.5698 43.8203 96.6468 43.6243C96.7548 43.3453 96.9848 43.1053 97.0788 42.8263C97.1928 42.4813 97.1768 42.1023 97.4758 41.8643C97.5008 41.3533 97.7658 41.0143 97.9098 40.6703C97.9938 40.4623 98.0198 40.2223 98.1078 40.0063C98.2038 39.7623 98.4258 39.5623 98.5048 39.3093C98.5478 39.1713 98.5228 39.0163 98.5718 38.8773C98.6498 38.6583 98.8678 38.4973 98.9368 38.2793C99.0118 38.0483 98.9698 37.8343 99.0368 37.6493C99.1058 37.4543 99.2548 37.2933 99.3688 37.0853C99.4438 36.9463 99.4098 36.8003 99.4668 36.6203C99.5278 36.4333 99.6788 36.2723 99.7658 36.0893C100.023 35.5453 100.002 34.9543 100.398 34.5953C100.31 34.1803 100.64 33.9353 100.762 33.6343C100.885 33.3303 100.884 32.9683 101.027 32.6703C101.168 32.3833 101.471 32.1323 101.426 31.6763C101.569 31.3993 101.799 31.2243 101.858 30.9123C101.877 30.8103 101.824 30.6703 101.858 30.5463C101.923 30.3093 102.166 30.1183 102.255 29.8833C102.335 29.6723 102.337 29.3683 102.455 29.1183C102.504 29.0163 102.638 28.9553 102.687 28.8553C102.81 28.6083 102.787 28.3253 102.887 28.0583C102.983 27.8013 103.217 27.6183 103.284 27.3943C103.333 27.2333 103.297 27.0273 103.384 26.8303C103.508 26.5513 103.702 26.3943 103.716 26.1983C103.739 25.8873 103.498 25.7563 103.351 25.4363C103.268 25.2553 103.284 25.0763 103.219 24.9393C103.136 24.7683 102.96 24.6813 102.887 24.5073C102.775 24.2413 102.824 23.9823 102.655 23.7113C101.997 23.6293 101.997 24.2263 101.824 24.6053ZM147.59 24.2413C147.507 24.4613 147.319 24.6073 147.26 24.7383C147.195 24.8803 147.185 25.2103 147.028 25.4693C146.936 25.6163 146.812 25.7093 146.761 25.8343C146.558 26.3233 146.863 26.6693 147.028 27.0293C147.152 27.3023 147.167 27.6043 147.26 27.8263C147.334 28.0033 147.488 28.1033 147.556 28.2583C147.763 28.7063 147.749 29.2823 148.089 29.5533C148.096 29.9933 148.393 30.3723 148.521 30.6473C148.607 30.8353 148.58 31.0223 148.652 31.2443C148.733 31.4933 148.959 31.6843 149.051 31.9413C149.128 32.1533 149.102 32.3973 149.183 32.6053C149.263 32.8113 149.448 32.9703 149.515 33.1693C149.57 33.3263 149.554 33.5103 149.615 33.6663C149.699 33.8843 149.892 34.0623 149.98 34.2983C150.082 34.5693 150.131 34.8303 150.178 35.1273C150.424 35.3453 150.558 35.6773 150.577 36.1233C150.876 36.3273 150.911 36.7163 151.009 37.0853C151.088 37.3843 151.284 37.6043 151.408 37.8833C151.481 38.0503 151.447 38.2663 151.506 38.4463C151.563 38.6213 151.756 38.7573 151.84 38.9433C151.95 39.1913 151.938 39.5033 152.039 39.7413C152.123 39.9393 152.292 40.0813 152.37 40.2713C152.433 40.4303 152.41 40.5993 152.469 40.7683C152.52 40.9133 152.653 41.0613 152.736 41.2343C152.818 41.4103 152.838 41.6033 152.901 41.7973C153.009 42.1333 153.199 42.3433 153.3 42.5613C153.41 42.8033 153.404 43.0803 153.498 43.3233C153.769 43.5893 153.808 44.0233 153.963 44.4193C154.068 44.6903 154.252 44.9183 154.329 45.1503C154.386 45.3213 154.36 45.5123 154.427 45.6803C154.498 45.8593 154.655 45.9973 154.726 46.1773C154.863 46.5313 155.008 47.0003 155.158 47.2733C155.23 47.4053 155.289 47.6033 155.323 47.7373C155.441 48.1933 155.649 48.3953 155.755 48.7663C155.784 48.8683 155.751 48.9983 155.788 49.0983C155.877 49.3383 156.099 49.5243 156.187 49.7623C156.262 49.9683 156.238 50.1763 156.318 50.3613C156.385 50.5063 156.544 50.6263 156.619 50.7913C156.717 51.0153 156.741 51.3223 156.851 51.5893C156.957 51.8463 157.11 52.0823 157.183 52.3173C157.234 52.4843 157.216 52.6633 157.281 52.8163C157.365 53.0073 157.546 53.1293 157.613 53.3133C157.672 53.4723 157.662 53.6613 157.713 53.8123C157.872 54.2853 158.212 54.7183 158.277 55.2713C158.497 55.5173 158.648 55.8293 158.676 56.2673C159.072 56.7013 159.053 57.5503 159.473 57.9603C159.571 58.7253 160.023 59.1373 160.137 59.8833C160.553 60.3413 160.53 61.2393 160.966 61.6773C160.915 62.0663 161.211 62.3353 161.364 62.6733C161.474 62.9183 161.469 63.2173 161.563 63.4703C161.649 63.7043 161.848 63.8983 161.928 64.1343C161.983 64.2933 161.971 64.4783 162.028 64.6313C162.111 64.8513 162.337 65.0753 162.394 65.2953C162.498 65.7073 162.663 66.0003 162.824 66.3893C162.93 66.6443 162.938 66.9493 163.056 67.1553C163.124 67.2753 163.315 67.4443 163.456 67.5853C163.83 67.9683 164.244 68.1023 164.615 68.4473C165.057 68.4733 165.285 68.8303 165.611 68.9463C166.31 69.1943 167.338 69.1883 167.935 68.9133C168.237 68.6733 168.679 68.3963 168.997 68.1823C169.143 68.0863 169.325 68.0293 169.396 67.9503C169.905 67.3753 169.066 66.8803 169.031 66.2573C168.453 65.3303 167.954 64.3243 167.569 63.2033C167.271 63.0063 167.263 62.6743 167.139 62.3743C167.066 62.1993 166.874 62.0443 166.774 61.8423C166.68 61.6553 166.668 61.4133 166.575 61.2473C166.513 61.1353 166.401 61.0503 166.342 60.9483C166.24 60.7673 166.242 60.5653 166.141 60.3493C166.065 60.1823 165.888 60.0543 165.811 59.8833C165.733 59.7133 165.729 59.5123 165.644 59.3533C165.568 59.2083 165.422 59.1083 165.348 58.9563C165.265 58.7893 165.263 58.5833 165.181 58.4243C165.112 58.2923 164.984 58.1923 164.916 58.0613C164.762 57.7703 164.629 57.4583 164.484 57.1653C164.366 56.9273 164.362 56.6623 164.25 56.4343C164.148 56.2183 163.943 56.0653 163.853 55.8373C163.802 55.7103 163.804 55.5803 163.753 55.4723C163.682 55.3213 163.541 55.2363 163.456 55.0733C163.37 54.9103 163.372 54.6683 163.289 54.5093C163.134 54.2113 162.79 53.9343 162.79 53.5143C162.474 53.3133 162.494 52.9343 162.36 52.6183C162.221 52.2903 161.82 52.0293 161.861 51.5893C161.449 51.2043 161.341 50.5143 160.999 50.0623C160.966 49.9743 160.96 49.8583 160.966 49.7293C160.665 49.4813 160.63 49.0843 160.469 48.7353C160.388 48.5563 160.221 48.4483 160.137 48.2693C160.048 48.0853 160.035 47.8473 159.937 47.6723C159.768 47.3723 159.485 47.1483 159.473 46.7763C159.371 46.6453 159.298 46.4863 159.174 46.3783C159.114 46.2173 159.084 46.0263 159.041 45.8453C158.746 45.6633 158.719 45.2723 158.577 44.9503C158.459 44.6893 158.253 44.4863 158.145 44.2213C158.1 44.1133 158.096 43.9583 158.045 43.8563C157.915 43.5893 157.562 43.4203 157.648 42.9933C157.352 42.5203 157.11 41.9643 156.851 41.4993C156.737 41.2963 156.711 41.0553 156.619 40.8683C156.523 40.6743 156.334 40.5323 156.254 40.3383C156.214 40.2423 156.226 40.1003 156.187 40.0063C156.099 39.7963 155.888 39.6313 155.788 39.4093C155.759 39.3423 155.78 39.2403 155.755 39.1753C155.588 38.7493 155.193 38.4403 155.158 37.9143C154.645 37.2443 154.392 36.3133 153.93 35.5903C153.873 35.3273 153.753 35.1273 153.696 34.8623C153.467 34.6833 153.329 34.4123 153.3 34.0313C152.977 33.8443 152.952 33.4263 152.801 33.1023C152.72 32.9273 152.551 32.8073 152.469 32.6383C152.321 32.3303 152.315 31.9573 152.039 31.7413C151.974 31.5293 151.848 31.3793 151.84 31.1103C151.284 30.4933 151.131 29.4743 150.577 28.8553C150.544 28.5673 150.442 28.3493 150.379 28.0913C149.864 27.4573 149.664 26.5063 149.149 25.8683C149.112 25.4383 148.829 25.1743 148.686 24.9053C148.595 24.7323 148.607 24.5203 148.521 24.3423C148.47 24.2343 148.334 24.0963 148.254 23.9763C148.169 23.8493 148.067 23.6823 147.922 23.6443C147.92 23.6233 147.918 23.6053 147.888 23.6113C147.869 23.6133 147.851 23.6173 147.857 23.6443C147.615 23.6863 147.676 24.0143 147.59 24.2413ZM147.028 21.1873C147.136 20.9103 147.136 20.6843 147.326 20.5573C147.556 20.4013 148.038 20.3723 148.354 20.5573C148.544 20.6693 148.597 20.9383 148.752 21.2213C148.914 21.5153 149.167 21.7823 149.149 22.2163C149.507 22.4013 149.501 22.8333 149.648 23.1453C149.733 23.3263 149.9 23.4663 149.98 23.6443C150.051 23.7983 150.045 23.9663 150.114 24.1103C150.269 24.4343 150.616 24.6603 150.577 25.0703C150.917 25.2943 150.915 25.6953 151.076 26.0333C151.149 26.1923 151.322 26.3213 151.408 26.4983C151.483 26.6533 151.496 26.8463 151.573 26.9953C151.728 27.2983 152.035 27.5753 152.039 27.9933C152.292 28.1933 152.437 28.5003 152.469 28.9203C152.761 29.1563 152.781 29.5453 152.934 29.8833C153.015 30.0653 153.211 30.1953 153.3 30.3813C153.368 30.5293 153.364 30.7293 153.431 30.8783C153.58 31.2023 153.93 31.4443 153.897 31.8433C154.113 32.0903 154.325 32.3423 154.36 32.7703C154.57 33.0273 154.796 33.2653 154.826 33.6993C155.16 33.9543 155.185 34.3773 155.356 34.7283C155.466 34.9503 155.659 35.1293 155.755 35.3593C155.89 35.6813 156.018 35.9813 156.153 36.2903C156.317 36.6593 156.47 36.9243 156.619 37.2173C156.841 37.6593 157.059 38.1363 157.216 38.6113C157.34 38.8043 157.487 38.9693 157.581 39.1753C157.633 39.2913 157.631 39.4193 157.68 39.5403C157.76 39.7413 157.947 39.9083 158.045 40.1063C158.163 40.3443 158.249 40.5993 158.377 40.8353C158.518 41.0963 158.587 41.3443 158.709 41.5993C158.797 41.7853 158.99 41.9373 159.074 42.1293C159.141 42.2823 159.167 42.4403 159.239 42.5953C159.31 42.7423 159.404 42.8763 159.473 43.0253C159.573 43.2493 159.589 43.5163 159.705 43.7243C159.872 44.0253 160.17 44.2333 160.137 44.6203C160.506 44.8203 160.443 45.2483 160.6 45.5823C160.683 45.7573 160.885 45.8593 160.966 46.0463C161.027 46.1853 161.025 46.3683 161.099 46.5093C161.168 46.6493 161.294 46.7783 161.364 46.9083C161.472 47.1083 161.494 47.3463 161.596 47.5393C161.74 47.8143 162.07 48.0223 162.028 48.4363C162.343 48.6523 162.354 49.0163 162.525 49.3633C162.606 49.5283 162.749 49.6643 162.824 49.8293C162.924 50.0453 162.922 50.2863 163.024 50.4933C163.17 50.7933 163.501 51.0093 163.456 51.3883C163.765 51.6083 163.788 52.0233 163.953 52.3513C164.024 52.4963 164.173 52.5963 164.25 52.7493C164.356 52.9563 164.372 53.2073 164.484 53.4133C164.566 53.5633 164.684 53.6733 164.749 53.8123C164.825 53.9713 164.837 54.1543 164.916 54.3093C165.02 54.5213 165.199 54.6593 165.279 54.8753C165.424 55.2503 165.562 55.4213 165.713 55.7373C165.774 55.8713 165.784 56.0383 165.843 56.1693C165.915 56.3183 166.069 56.4213 166.141 56.5663C166.24 56.7543 166.23 56.9743 166.31 57.1653C166.369 57.3103 166.495 57.4833 166.575 57.6293C166.67 57.8053 166.691 57.9803 166.774 58.1593C166.87 58.3653 167.084 58.5063 167.171 58.7253C167.316 59.0863 167.328 59.3613 167.603 59.5533C167.677 60.2093 168.155 60.4613 168.233 61.1133C168.445 61.3353 168.632 61.5783 168.665 61.9773C168.991 62.2113 168.985 62.6083 169.162 62.9733C169.26 63.1693 169.449 63.2873 169.528 63.5033C169.594 63.6843 169.585 63.8943 169.661 64.0673C169.763 64.2953 169.964 64.4703 170.058 64.6983C170.178 64.9803 170.241 65.2733 170.457 65.4933C170.521 65.9133 170.769 66.1183 170.922 66.4223C171.093 66.7683 171.17 67.0533 171.354 67.3203C171.712 67.8383 172.156 68.2683 172.649 68.6143C173.014 68.8713 173.21 68.9813 173.709 69.1113C173.941 69.1723 174.196 69.2843 174.407 69.3113C175.124 69.4003 175.691 69.2543 176.166 69.1113C176.438 69.0313 176.752 68.9873 176.929 68.9133C177.261 68.7713 177.498 68.4593 177.891 68.4473C178.078 68.1923 178.36 68.0313 178.588 67.8173C178.586 67.3673 179.005 67.0393 178.987 66.6243C178.981 66.5073 178.855 66.2713 178.787 66.0923C178.714 65.8983 178.659 65.6683 178.588 65.5263C178.51 65.3713 178.327 65.2443 178.225 65.0633C178.146 64.9273 178.142 64.7663 178.058 64.6313C177.983 64.5113 177.828 64.4253 177.757 64.2993C177.659 64.1223 177.661 63.8983 177.559 63.7353C177.498 63.6333 177.388 63.5703 177.327 63.4703C177.133 63.1483 176.968 62.7813 176.73 62.5743C176.77 62.1503 176.428 62.0243 176.298 61.8103C176.151 61.5653 176.157 61.2563 175.901 61.1133C175.772 60.5553 175.34 60.3023 175.204 59.7523C174.577 58.8423 174.088 57.7933 173.444 56.8983C173.411 56.5073 173.132 56.3543 172.979 56.1023C172.865 55.9123 172.804 55.6723 172.68 55.4723C172.548 55.2523 172.466 55.0363 172.35 54.8413C172.246 54.6673 172.069 54.5593 171.983 54.3763C171.857 54.1073 171.806 53.8533 171.553 53.6793C171.403 53.1663 171.044 52.8613 170.889 52.3513C170.722 52.1543 170.494 52.0173 170.49 51.6533C170.176 51.4373 170.08 51.0033 169.893 50.6603C169.477 50.2493 169.341 49.6543 169.031 49.1653C168.94 49.0233 168.783 48.9193 168.699 48.7663C168.622 48.6333 168.608 48.4733 168.532 48.3363C168.465 48.2103 168.312 48.1343 168.233 48.0043C168.147 47.8573 168.125 47.6583 168.035 47.5073C167.88 47.2423 167.616 47.0593 167.603 46.7103C167.459 46.5883 167.361 46.4723 167.271 46.3113C167.204 46.1913 167.198 46.0603 167.139 45.9483C167.061 45.7943 166.896 45.6763 166.807 45.5133C166.729 45.3703 166.691 45.2233 166.609 45.0833C166.534 44.9583 166.42 44.8483 166.342 44.7183C166.265 44.5903 166.251 44.4103 166.175 44.2863C166.078 44.1293 165.898 44.0253 165.811 43.8563C165.756 43.7483 165.764 43.5963 165.713 43.4903C165.629 43.3233 165.438 43.2003 165.348 43.0253C165.281 42.8993 165.279 42.7383 165.214 42.6283C165.144 42.5063 164.996 42.4493 164.916 42.3283C164.796 42.1533 164.741 41.8843 164.615 41.6663C164.56 41.5653 164.472 41.4993 164.417 41.3993C164.354 41.2853 164.348 41.1353 164.283 41.0353C164.158 40.8353 163.939 40.7173 163.853 40.5363C163.712 40.2383 163.718 39.9693 163.456 39.8393C163.254 39.3833 163.007 38.9573 162.757 38.5453C162.673 38.4033 162.565 38.2623 162.492 38.1143C162.347 37.8183 162.268 37.5473 162.028 37.3843C161.808 36.9063 161.612 36.5043 161.331 36.0893C161.176 35.8613 160.954 35.7003 160.966 35.3923C160.532 34.9213 160.265 34.2713 159.937 33.7323C159.858 33.6053 159.785 33.4653 159.705 33.3363C159.616 33.1943 159.555 33.0433 159.473 32.9033C159.394 32.7743 159.249 32.6763 159.174 32.5383C159.104 32.4083 159.082 32.2383 159.007 32.1063C158.937 31.9803 158.78 31.8963 158.709 31.7743C158.589 31.5703 158.512 31.3363 158.377 31.1103C158.312 31.0043 158.267 30.8823 158.212 30.7803C158.043 30.4603 157.845 30.3093 157.713 30.0493C157.652 29.9283 157.646 29.7693 157.581 29.6513C157.493 29.4883 157.306 29.3803 157.216 29.2213C156.89 28.6473 156.658 28.0073 156.22 27.5263C156.201 27.4233 156.193 27.3093 156.153 27.2273C155.737 26.7933 155.499 26.2023 155.191 25.6673C155.034 25.3943 154.729 25.1723 154.726 24.8053C154.329 24.5283 154.27 23.9113 153.897 23.6113C153.824 23.0653 153.355 22.9143 153.266 22.3833C152.775 21.8333 152.539 21.0283 152.039 20.4923C151.758 19.7653 151.241 19.2763 150.976 18.5343C150.396 17.9053 150.112 16.9863 149.55 16.3423C149.583 16.1753 149.473 16.1533 149.481 16.0103C149.344 15.9273 149.281 15.7683 149.149 15.6803C148.892 14.9313 148.356 14.4623 148.055 13.7533C147.761 13.5763 147.537 13.2363 147.226 13.0893C146.344 12.6763 145.545 13.3383 145.036 13.7193C144.763 14.0453 144.865 14.4763 144.769 14.8823C144.74 15.0083 144.616 15.0963 144.571 15.2143C144.333 15.8393 144.374 16.7913 144.172 17.4043C144.052 17.7693 143.946 18.0943 143.873 18.4673C143.799 18.8623 143.667 19.1783 143.542 19.5273C143.408 19.9053 143.42 20.3463 143.276 20.6903C143.159 20.9753 142.817 21.2173 142.88 21.6533C142.603 21.9923 142.542 22.3993 142.347 22.8133C142.194 23.1413 141.858 23.3633 141.884 23.8093C141.31 24.4563 140.874 25.2333 140.389 25.9683C140.12 26.0683 140.057 26.3573 139.892 26.5653C139.601 26.9303 139.157 27.1993 138.961 27.6593C138.334 28.1033 137.843 28.7163 137.237 29.1853C136.938 29.4173 136.598 29.6333 136.307 29.8833C136.16 30.0083 136.038 30.1383 135.875 30.2483C135.598 30.4363 135.398 30.6863 135.046 30.7453C134.978 30.9843 134.709 31.0963 134.514 31.2103C134.3 31.3383 134.068 31.4243 133.917 31.6093C133.522 31.6643 133.334 31.9293 133.021 32.0733C132.839 32.1593 132.57 32.1433 132.357 32.2403C132.234 32.2953 132.13 32.4423 131.994 32.5053C131.542 32.7093 130.937 32.6683 130.633 32.8703C130.283 33.1003 130.169 33.7783 130 34.1983C129.924 34.3923 129.631 34.7893 129.403 35.0603C129.146 35.3653 128.755 35.7363 128.474 35.9243C128.274 36.0583 127.942 36.3033 127.744 36.3883C127.532 36.4803 127.233 36.4843 126.982 36.5533C126.714 36.6283 126.461 36.7593 126.251 36.7873C125.772 36.8463 125.002 36.8633 124.493 36.7873C124.022 36.7163 123.774 36.3903 123.098 36.3883C122.611 35.9853 122.069 35.7063 121.637 35.2603C121.177 34.7833 120.928 34.1623 120.543 33.6013C120.474 32.7603 119.498 32.8313 118.75 32.6703C118.357 32.3613 117.844 32.2953 117.388 32.1063C117.176 32.0203 116.986 31.7863 116.76 31.6763C116.666 31.6313 116.542 31.6563 116.459 31.6093C116.402 31.5763 116.365 31.4603 116.294 31.4093C115.968 31.1833 115.483 31.1043 115.365 30.7453C115.012 30.5783 114.619 30.4073 114.303 30.1483C114.199 30.0653 114.146 29.8983 114.038 29.8163C113.727 29.5823 113.374 29.4213 113.075 29.1853C112.9 29.0483 112.773 28.8453 112.61 28.6883C112.447 28.5293 112.266 28.4053 112.079 28.2563C111.451 27.7513 111.072 27.0383 110.453 26.5653C110.08 25.8933 109.494 25.3393 109.092 24.7073C108.852 24.3283 108.664 23.9113 108.463 23.5113C108.359 23.3053 108.188 23.1533 108.098 22.9473C107.964 22.6453 107.911 22.3263 107.666 22.0853C107.552 21.3013 107.055 20.9023 107.035 20.0263C106.713 19.6753 106.707 19.1783 106.603 18.6653C106.529 18.2963 106.277 17.9403 106.206 17.5713C106.148 17.2763 106.183 16.9743 106.138 16.6733C106.079 16.2673 105.874 15.8863 105.774 15.4793C105.584 14.7073 105.627 13.9473 105.177 13.5213C104.68 13.1893 104.028 12.7273 103.284 13.0573C103.023 13.1733 102.858 13.5113 102.522 13.4883C101.775 14.6993 100.974 15.8563 100.33 17.1723C100.224 17.2863 100.106 17.3883 100.033 17.5383C99.7148 18.2493 99.2078 18.7713 98.9368 19.5273C98.3968 20.0283 98.1728 20.8433 97.6758 21.3873C97.1928 22.4403 96.4898 23.2773 96.0498 24.3753C95.5018 24.8783 95.3068 25.7343 94.7888 26.2663C94.3978 27.1583 93.8828 27.9263 93.3628 28.6883C93.3118 29.0543 93.0838 29.1933 92.9288 29.4503C92.6908 29.8493 92.4808 30.3133 92.2648 30.7133C92.1878 30.8573 92.0448 30.9713 91.9678 31.1103C91.8008 31.4153 91.7758 31.7473 91.4688 31.8763C91.2648 32.6993 90.6518 33.1143 90.4088 33.8993C90.1768 34.1473 90.0428 34.3943 89.8758 34.6953C89.8208 34.7933 89.7698 34.8973 89.7108 34.9933C89.5798 35.2073 89.4988 35.4203 89.3788 35.6243C89.1508 36.0133 88.8288 36.3643 88.6148 36.7533C88.5778 36.8223 88.5818 36.9483 88.5478 37.0183C88.4308 37.2743 88.1668 37.4473 88.0518 37.6823C87.9928 37.8003 88.0118 37.9573 87.9508 38.0813C87.8938 38.1953 87.7648 38.3153 87.6858 38.4463C87.4978 38.7613 87.3968 39.0083 87.1558 39.2103C87.1188 39.3053 87.1258 39.4443 87.0888 39.5403C86.7828 39.7743 86.7018 40.1493 86.5248 40.4713C86.4528 40.5973 86.3048 40.7013 86.2268 40.8353C86.1328 40.9943 86.1168 41.1983 86.0258 41.3343C85.9578 41.4383 85.8238 41.4893 85.7608 41.5993C85.6888 41.7273 85.6948 41.9033 85.6278 42.0313C85.5388 42.2043 85.3608 42.3243 85.2638 42.4953C85.0308 42.9053 84.8598 43.3513 84.5998 43.7563C84.5258 43.8713 84.4058 43.9663 84.3328 44.0873C84.2508 44.2273 84.1858 44.4023 84.1018 44.5533C84.0168 44.7043 83.8798 44.8083 83.8028 44.9503C83.7418 45.0623 83.7618 45.2013 83.7028 45.3153C83.5538 45.6103 83.1958 45.8433 83.1728 46.2463C82.8408 46.5213 82.7718 47.0633 82.4078 47.3073C82.2568 47.7473 82.0158 48.1753 81.7778 48.5703C81.5228 48.9923 81.1848 49.4343 80.9818 49.8293C80.8408 50.1063 80.7678 50.4383 80.4838 50.6263C80.4738 50.9273 80.2338 51.0903 80.0848 51.3223C79.7138 51.9093 79.4938 52.6063 79.0238 53.1153C78.7938 53.9143 78.2268 54.3743 77.9618 55.1403C77.6428 55.2753 77.6628 55.6093 77.5308 55.9043C77.4568 56.0653 77.2678 56.1463 77.1638 56.3013C77.0538 56.4683 76.9578 56.7153 76.8338 56.9313C76.7118 57.1453 76.6548 57.4033 76.5358 57.5953C76.4428 57.7423 76.2758 57.8253 76.2038 57.9603C76.0348 58.2753 76.0348 58.5673 75.7378 58.7253C75.4848 59.5653 74.8798 60.0563 74.6108 60.8813C74.5118 61.0053 74.3868 61.1013 74.3098 61.2473C74.2138 61.2923 74.2628 61.4863 74.2118 61.5783C73.7428 62.0423 73.5438 62.7333 73.1828 63.3053C73.0448 63.5213 72.7718 63.6683 72.7858 64.0023C72.5148 64.2583 72.3988 64.6473 72.1868 64.9963C72.0988 65.1413 71.9648 65.2503 71.8878 65.3953C71.8138 65.5363 71.8198 65.7233 71.7568 65.8583C71.7098 65.9593 71.6048 66.0253 71.5558 66.1263C71.4818 66.2793 71.4008 66.4853 71.3908 66.6563C71.3638 67.1153 71.6758 67.3493 71.7898 67.7833C72.1218 68.1623 72.5048 68.4353 73.0178 68.6793C73.4558 68.8893 73.9018 68.9503 74.4098 69.1113C74.6068 69.1743 74.7478 69.2883 74.9088 69.3113C75.6138 69.4063 76.1328 69.2353 76.5358 69.1113C76.7968 69.0333 77.1498 69.0113 77.2978 68.9133C77.8868 68.5203 78.4658 68.0603 78.8568 67.6183C78.9318 67.2613 79.2048 67.0133 79.3558 66.6873C79.4248 66.5443 79.4538 66.3693 79.5208 66.2243C79.6018 66.0553 79.7408 65.9253 79.8198 65.7603C79.9178 65.5543 79.9408 65.3163 80.0528 65.1303C80.1158 65.0223 80.2258 64.9473 80.2848 64.8293C80.3788 64.6483 80.3828 64.4193 80.4838 64.2323C80.5558 64.1023 80.7188 64.0283 80.7818 63.9003C80.8648 63.7393 80.8648 63.5473 80.9488 63.3703C81.0298 63.2013 81.1988 63.0733 81.2808 62.9043C81.3968 62.6633 81.3868 62.3503 81.5128 62.1093C81.5538 62.0283 81.6678 61.9563 81.7108 61.8773C81.8228 61.6793 81.8388 61.4333 81.9448 61.2473C82.0138 61.1253 82.1468 61.0663 82.2098 60.9483C82.2998 60.7773 82.2848 60.5493 82.3748 60.3493C82.4498 60.1883 82.6278 60.0563 82.7068 59.8833C82.8678 59.5443 82.8458 59.1743 83.1728 59.0233C83.1758 58.7283 83.3388 58.5913 83.3708 58.3263C83.4548 58.2653 83.5378 58.2023 83.6048 58.1253C83.8778 57.3813 84.1858 56.6723 84.6318 56.1023C84.6648 55.8863 84.6908 55.6963 84.7988 55.5033C84.8598 55.3993 84.9778 55.3443 85.0308 55.2403C85.1518 55.0043 85.1408 54.6983 85.2638 54.4433C85.3548 54.2563 85.5468 54.1113 85.6278 53.9123C85.6688 53.8123 85.6488 53.6813 85.6948 53.5783C85.7928 53.3643 86.0088 53.2113 86.0928 53.0153C86.1438 52.8933 86.1088 52.7463 86.1598 52.6183C86.2208 52.4633 86.4038 52.3553 86.4918 52.1863C86.5918 51.9913 86.5918 51.7403 86.6898 51.5553C86.8478 51.2593 87.1478 51.0053 87.1558 50.6263C87.8568 49.5683 88.3028 48.2573 88.9468 47.1423C88.9608 46.7023 89.2258 46.5133 89.3788 46.2113C89.4618 45.7813 89.7108 45.5553 89.8758 45.2173C89.9528 45.0623 89.9388 44.8673 90.0098 44.7183C90.0958 44.5333 90.2888 44.3863 90.3748 44.1883C90.4238 44.0723 90.4218 43.9463 90.4728 43.8223C90.5438 43.6533 90.7228 43.5123 90.8048 43.3233C90.8538 43.2173 90.8638 43.0983 90.9048 42.9933C90.9958 42.7733 91.1608 42.5993 91.2708 42.3963C91.3708 42.2063 91.3788 41.9823 91.4688 41.7973C91.5438 41.6483 91.7298 41.5483 91.8008 41.3993C91.9918 41.0063 91.9978 40.6423 92.2998 40.4033C92.2758 40.2383 92.3298 40.1473 92.3328 40.0063C92.4728 39.8493 92.5438 39.6193 92.6988 39.4743C92.7908 38.8493 93.2738 38.6133 93.3268 37.9473C93.6238 37.7493 93.6358 37.4273 93.7588 37.1193C93.8438 36.9103 94.0598 36.7593 94.1578 36.5533C94.2678 36.3253 94.2678 36.0523 94.3898 35.8583C94.4508 35.7593 94.5708 35.7243 94.6238 35.6243C94.7178 35.4453 94.7198 35.2153 94.7888 35.0273C95.0788 34.8423 95.1168 34.4633 95.2518 34.1643C95.3428 33.9683 95.5018 33.8233 95.5838 33.6343C95.7298 33.3063 95.7628 32.9273 96.0498 32.7033C96.0138 32.2853 96.3478 32.0333 96.5148 31.7093C96.5938 31.5563 96.5738 31.3643 96.6468 31.2103C96.7268 31.0413 96.9018 30.9083 96.9788 30.7453C97.1608 30.3623 97.1608 29.9753 97.4758 29.7843C97.4658 29.3723 97.7798 29.1343 97.9408 28.8203C98.0258 28.6573 98.0178 28.4353 98.1078 28.2563C98.2478 27.9773 98.5908 27.7493 98.5718 27.3293C98.6988 27.2113 98.7578 27.0273 98.9038 26.9303C98.9778 26.5403 99.1038 26.2003 99.3688 25.9993C99.3868 25.6993 99.5478 25.5383 99.5678 25.2373C99.6808 25.0593 99.8758 24.8943 99.9658 24.6403C99.9958 24.5563 99.9558 24.4303 99.9978 24.3423C100.086 24.1573 100.279 24.0103 100.365 23.8093C100.426 23.6663 100.426 23.4973 100.497 23.3463C100.565 23.1983 100.72 23.0943 100.795 22.9473C100.897 22.7513 100.915 22.4913 101.027 22.2833C101.141 22.0773 101.327 21.9303 101.392 21.7533C101.432 21.6493 101.412 21.5193 101.459 21.4213C101.543 21.2443 101.873 20.7263 101.989 20.6233C102.262 20.3883 103.06 20.3863 103.252 20.7243C103.331 20.8633 103.276 21.0083 103.317 21.1563C103.39 21.4073 103.584 21.6293 103.682 21.8843C103.775 22.1263 103.796 22.4363 103.914 22.6823C104.089 23.0393 104.362 23.2933 104.346 23.7763C104.647 23.9763 104.649 24.3183 104.778 24.6403C104.853 24.8253 105.034 24.9493 105.11 25.1043C105.169 25.2253 105.175 25.3613 105.242 25.5023C105.395 25.8273 105.78 26.0743 105.774 26.4983C106.03 26.6303 106.077 26.9233 106.206 27.1293C106.301 27.2823 106.479 27.3823 106.57 27.5263C106.837 27.9543 107.027 28.3233 107.334 28.6883C107.534 28.9283 107.795 29.1133 107.998 29.3523C108.161 29.5453 108.263 29.7433 108.428 29.9183C108.591 30.0873 108.758 30.2403 108.927 30.4133C109.756 31.2753 110.655 32.0803 111.549 32.8373C111.743 33.0043 111.969 33.1083 112.146 33.2693C112.197 33.3163 112.193 33.4283 112.244 33.4673C112.319 33.5243 112.435 33.5503 112.511 33.6013C112.594 33.6563 112.655 33.7303 112.743 33.7993C113.346 34.2653 114.012 34.6793 114.603 35.0943C114.727 35.1823 114.839 35.3103 114.967 35.3923C115.085 35.4693 115.275 35.4713 115.43 35.5593C115.532 35.6143 115.642 35.7633 115.796 35.8583C115.935 35.9423 116.137 36.0033 116.261 36.0893C116.888 36.5253 116.89 36.9183 116.727 37.8493C116.652 38.2683 116.638 38.6943 116.56 39.0103C116.485 39.3093 116.359 39.5783 116.294 39.9063C116.232 40.2363 116.22 40.5793 116.161 40.9353C116.067 41.5073 115.788 42.0293 115.731 42.4953C115.701 42.7403 115.743 42.9933 115.697 43.2253C115.579 43.8263 115.336 44.4193 115.232 45.0503C115.147 45.5613 115.057 46.0423 114.933 46.5433C114.806 47.0653 114.8 47.5973 114.702 48.1043C114.599 48.6273 114.34 49.0713 114.303 49.5973C114.269 50.0883 114.305 50.3553 114.071 50.6263C113.912 52.2943 113.356 53.5633 113.24 55.2713C112.871 55.8313 112.963 56.5033 112.843 57.1323C112.741 57.6683 112.494 58.1823 112.411 58.7253C112.305 59.4223 112.189 60.0523 112.013 60.7503C111.867 61.3193 111.859 61.8893 111.683 62.4743C111.394 63.4253 111.362 64.4233 111.117 65.2613C111.007 65.6343 110.991 65.9743 110.952 66.3893C110.932 66.5853 110.797 66.7313 110.752 66.8883C110.563 67.5713 110.596 68.2923 110.422 69.0113C110.363 69.2453 110.249 69.4473 110.188 69.6753C110.039 70.2393 110.044 70.9023 109.889 71.5013C109.817 71.7823 109.683 72.0283 109.622 72.2973C109.557 72.6053 109.577 72.9243 109.524 73.2593C109.445 73.7683 109.241 74.2613 109.125 74.7543C109.045 75.0963 109.062 75.5463 108.994 75.9153C108.931 76.2473 108.805 76.5693 108.728 76.9113C108.648 77.2603 108.587 77.6203 108.528 77.9733C108.414 78.6613 108.159 79.3503 108.063 80.0633C107.966 80.8023 107.792 81.2603 107.666 81.8903C107.601 82.2143 107.644 82.5663 107.566 82.8843C107.487 83.2043 107.332 83.4933 107.267 83.8133C107.173 84.2713 107.194 84.7543 107.102 85.2083C107.008 85.6633 106.8 86.0863 106.703 86.5353C106.625 86.9013 106.676 87.2953 106.603 87.6633C106.554 87.9183 106.409 88.1643 106.338 88.4273C106.258 88.7233 106.242 89.0103 106.206 89.3563C106.108 90.2873 105.543 91.2163 105.774 92.2103C106.081 92.3943 106.464 92.3103 106.804 92.3103H142.281C142.923 92.3103 144.416 92.4463 144.638 92.2103C144.657 92.1903 144.74 91.9373 144.738 91.7463C144.73 91.4123 144.5 91.0003 144.406 90.5833C144.29 90.0833 144.28 89.4823 144.172 88.9593C144.131 88.7613 143.995 88.5983 143.94 88.3933C143.791 87.8403 143.84 87.2033 143.708 86.6023C143.63 86.2543 143.38 85.9113 143.343 85.5733C143.272 84.9333 143.237 84.2983 143.078 83.7463C143.037 83.6133 142.94 83.5143 142.911 83.3833C142.805 82.9023 142.842 82.3773 142.713 81.8903C142.687 81.7963 142.605 81.7073 142.579 81.6253C142.394 81.0163 142.381 80.4173 142.281 79.7983C142.216 79.4033 142.039 79.0303 141.949 78.6373C141.896 78.4003 141.915 78.1483 141.884 77.9073C141.85 77.6813 141.738 77.4863 141.683 77.2763C141.662 77.1963 141.703 77.1013 141.683 77.0113C141.626 76.7423 141.483 76.4773 141.452 76.2143C141.371 75.5593 141.243 74.9583 141.086 74.3223C140.955 73.7863 140.968 73.2323 140.855 72.6963C140.788 72.3813 140.587 72.0513 140.523 71.6663C140.452 71.2603 140.481 70.8043 140.389 70.4053C140.305 70.0423 140.077 69.6943 140.024 69.3763C140.004 69.2493 140.035 69.1073 140.024 68.9793C139.971 68.3863 139.76 67.7483 139.592 67.1193C139.46 66.6283 139.507 66.0943 139.393 65.6603C139.352 65.4993 139.238 65.3523 139.195 65.1953C138.973 64.3833 138.937 63.4663 138.763 62.7393C138.678 62.3923 138.621 62.0813 138.564 61.7123C138.478 61.1663 138.246 60.6263 138.166 60.1513C138.126 59.9233 138.103 59.6673 138.065 59.4203C137.995 58.9433 137.847 58.5163 137.733 58.0613C137.608 57.5463 137.645 57.0063 137.535 56.4993C137.472 56.2163 137.307 55.9353 137.237 55.6033C137.16 55.2563 137.154 54.8963 137.103 54.5093C137.032 53.9833 136.789 53.5513 136.704 53.1823C136.571 52.5833 136.579 51.9483 136.406 51.3223C136.235 50.6973 136.229 50.0763 136.074 49.4633C136.034 49.3043 135.917 49.1593 135.875 49.0003C135.746 48.4893 135.695 47.9573 135.61 47.4383C135.526 46.9323 135.333 46.4433 135.245 45.9483C135.154 45.4373 135.151 44.9403 135.013 44.4533C134.974 44.3133 134.876 44.1943 134.846 44.0543C134.773 43.7183 134.795 43.3633 134.746 43.0253C134.685 42.5953 134.502 42.1493 134.381 41.6993C134.251 41.2103 134.288 40.6863 134.182 40.2043C134.096 39.8083 133.829 39.3703 133.783 38.7783C133.774 38.6373 133.801 38.4663 133.783 38.3133C133.721 37.7453 133.397 37.3033 133.454 36.9183C133.493 36.6393 133.89 36.2643 134.149 36.0893C134.551 35.8183 134.991 35.6243 135.41 35.3593C135.746 35.1493 136.078 34.8723 136.374 34.6633C137.659 33.7523 138.914 32.7973 140.057 31.8073C140.589 31.3503 140.996 30.8213 141.485 30.3483C141.736 30.1043 142.031 29.8903 142.247 29.6513C142.504 29.3663 142.744 28.9713 142.978 28.6883C143.068 28.5783 143.212 28.5153 143.276 28.4233C143.345 28.3213 143.339 28.1623 143.41 28.0583C143.488 27.9363 143.655 27.8753 143.742 27.7593C143.83 27.6393 143.877 27.4673 143.974 27.3293C144.068 27.1923 144.203 27.0843 144.272 26.9643C144.325 26.8683 144.313 26.7423 144.372 26.6323C144.439 26.4963 144.618 26.3803 144.704 26.2333C144.771 26.1153 144.773 25.9783 144.836 25.8683C144.924 25.7173 145.103 25.6103 145.168 25.4693C145.235 25.3263 145.215 25.1613 145.268 25.0393C145.427 24.6703 145.787 24.3913 145.832 23.8763C146.293 23.4973 146.246 22.6093 146.661 22.1833C146.572 21.8433 146.898 21.5153 147.028 21.1873ZM125.453 5.52326C124.949 5.83726 124.833 6.53826 124.658 7.18326C124.393 7.38326 124.381 7.76626 124.226 8.07826C124.132 8.27526 123.939 8.41226 123.86 8.60926C123.743 8.90526 123.752 9.28626 123.43 9.43926C123.175 10.0363 122.812 10.5243 122.368 10.9343C122.34 11.1643 122.234 11.2293 122.103 11.3643C121.056 12.4373 119.936 13.4903 118.75 14.3183C117.938 14.8233 117.06 15.2613 116.228 15.7443C115.76 15.7393 115.369 16.0703 115.098 16.2103C114.813 16.3573 114.519 16.3223 114.136 16.4083C113.912 16.4593 113.715 16.5973 113.474 16.6423C113.032 16.7253 112.547 16.6773 112.244 17.0393C112.407 17.4283 112.344 17.9073 112.478 18.3003C112.574 18.5853 112.763 18.8093 112.843 19.0973C112.944 19.4593 112.936 19.8513 113.24 20.0933C114.474 22.8433 116.546 24.7523 118.883 26.3983C120.081 26.8933 120.975 27.6923 122.501 27.8593C122.704 28.0383 122.986 28.1133 123.263 28.1583C124.004 28.2783 124.984 28.3293 125.852 28.2903C126.276 28.2723 126.73 28.2763 127.115 28.2253C127.551 28.1663 127.926 27.9443 128.309 27.8593C128.618 27.7913 128.938 27.8243 129.205 27.7263C129.374 27.6653 129.502 27.4983 129.669 27.4273C129.902 27.3293 130.177 27.3393 130.399 27.2273C130.694 27.0843 130.89 26.8243 131.195 26.7973C131.316 26.6423 131.519 26.5673 131.662 26.4313C132.354 26.0503 132.978 25.6033 133.454 25.0053C134.053 24.5643 134.481 23.9533 135.046 23.4773C135.041 23.2613 135.276 23.2893 135.245 23.0473C135.999 22.2733 136.502 21.2503 137.103 20.3253C137.156 19.9483 137.297 19.6573 137.535 19.4633C137.594 18.6533 138.435 17.8833 137.9 17.1063C137.455 16.9113 137.015 16.9503 136.573 16.8403C136.28 16.7683 136.05 16.5053 135.775 16.4083C135.467 16.3003 135.274 16.3473 135.046 16.2103C134.799 16.0633 134.51 15.7923 134.117 15.7783C133.53 15.2913 132.676 15.0733 132.159 14.5173C131.205 14.1423 130.696 13.3253 129.835 12.8573C129.47 12.3153 128.834 12.0443 128.573 11.3983C128.4 11.3493 128.398 11.1313 128.209 11.0973C128.062 10.6713 127.675 10.4823 127.579 10.0033C127.227 9.66726 126.985 9.21726 126.75 8.77526C126.63 8.55426 126.622 8.30626 126.516 8.07826C126.371 7.76426 126.035 7.52426 126.117 7.11626C125.666 6.83926 125.848 5.92726 125.489 5.55626C125.485 5.53526 125.483 5.51726 125.453 5.52326ZM128.675 2.03826C128.445 1.99126 128.193 2.00926 127.944 1.97226C127.618 1.92226 127.306 1.79326 127.046 1.77326C126.186 1.70426 126.416 2.24326 126.516 2.73626C126.628 3.28226 126.659 3.85526 126.815 4.39526C126.895 4.67426 127.08 4.94326 127.147 5.22426C127.203 5.46626 127.2 5.61926 127.28 5.82126C127.347 5.99426 127.469 6.13026 127.545 6.32026C127.61 6.47726 127.59 6.66826 127.645 6.81726C127.718 7.02326 127.885 7.18126 127.977 7.38126C128.186 7.83526 128.301 8.20826 128.573 8.51026C128.626 8.55926 128.602 8.68126 128.606 8.77526C129.25 9.69326 129.953 10.5493 130.666 11.3983C131.505 11.8833 132.079 12.6393 132.955 13.0893C133.019 13.1463 133.096 13.1913 133.12 13.2893C133.656 13.5133 134.045 13.7903 134.514 14.0513C134.846 14.2383 135.133 14.3503 135.51 14.5173C135.702 14.6013 135.869 14.7493 136.042 14.8153C136.194 14.8743 136.443 14.8683 136.639 14.9493C137.052 15.1163 137.849 15.6803 138.299 15.2793C138.49 15.1103 138.446 14.0163 138.397 13.6553C138.37 13.4523 138.26 13.2833 138.232 13.0893C138.136 12.4433 138.148 11.8063 137.932 11.2313C137.889 11.1133 137.775 11.0113 137.733 10.8993C137.612 10.5713 137.641 10.2273 137.535 9.97026C137.482 9.84626 137.35 9.75426 137.303 9.63826C137.201 9.39626 137.215 9.17026 137.103 8.94026C136.883 8.73026 136.738 8.44426 136.639 8.11226C136.525 7.98226 136.439 7.82326 136.307 7.71326C135.787 6.61326 134.883 5.75526 134.051 4.95926C133.86 4.77826 133.697 4.55626 133.518 4.42926C133.251 4.22826 132.892 4.06326 132.623 3.89626C132.426 3.77326 132.275 3.54526 132.092 3.43326C131.974 3.36026 131.808 3.37626 131.662 3.29926C131.483 3.20726 131.356 3.00326 131.195 2.93426C131.081 2.88326 130.916 2.91426 130.798 2.86726C130.554 2.77326 130.38 2.54326 130.134 2.47026C129.529 2.48426 129.325 2.17226 128.675 2.03826ZM123.297 6.15326C123.365 5.94726 123.348 5.71326 123.43 5.48926C123.509 5.27526 123.67 5.11026 123.729 4.89226C123.792 4.65726 123.764 4.38026 123.829 4.13026C123.947 3.66726 124.204 3.09326 124.259 2.53726C124.298 2.15426 124.22 1.59626 123.86 1.74026C123.44 1.91126 122.835 1.89526 122.234 2.03826C121.843 2.13326 121.515 2.40626 121.238 2.47026C121.093 2.50426 120.904 2.47026 120.741 2.53726C120.508 2.63026 120.032 2.98126 120.044 3.16626C120.056 3.33926 120.372 3.44726 120.443 3.63126C120.775 4.50926 120.011 5.22026 119.879 5.98826C119.549 6.29726 119.349 6.78826 119.017 7.14926C118.75 7.44026 118.357 7.81326 117.988 8.14526C117.357 8.71126 116.848 9.21026 116.161 9.67126C115.896 9.85026 115.542 10.1313 115.332 10.1683C114.586 10.3103 114.13 9.79126 114.303 9.00926C114.381 8.89726 114.487 8.81726 114.535 8.67526C115.428 8.17626 116.188 7.54026 116.858 6.81726C117.426 6.64026 117.591 6.06726 118.021 5.75526C118.039 5.44226 118.371 5.24626 118.518 4.95926C118.598 4.80226 118.589 4.59426 118.651 4.42926C118.736 4.20526 119.001 3.95526 118.75 3.73126C118.062 3.90626 117.603 4.30926 117.157 4.72726C116.689 4.97126 116.379 5.37726 115.996 5.75526C115.744 6.00226 115.526 6.24426 115.332 6.48526C115.151 6.71126 114.947 6.84726 114.802 7.04926C114.733 7.14126 114.731 7.29126 114.668 7.38126C114.592 7.49526 114.44 7.54026 114.37 7.64826C114.318 7.72526 114.348 7.82326 114.303 7.91126C114.226 8.06626 114.045 8.22426 113.939 8.37726C113.8 8.57326 113.772 8.77426 113.672 8.97426C113.588 9.14326 113.409 9.26726 113.34 9.43926C113.197 9.80526 113.195 10.1943 112.877 10.4693C112.928 10.8753 112.735 11.1073 112.643 11.3313C112.474 11.7513 112.458 12.2033 112.378 12.6923C112.348 12.8813 112.236 13.0693 112.211 13.2563C112.189 13.4363 112.246 13.6373 112.211 13.8203C112.178 14.0043 112.024 14.1613 112.013 14.3523C111.999 14.6013 112.125 14.8533 112.244 15.0473C113.095 15.0793 113.633 14.7983 114.37 14.7153C114.617 14.4993 114.935 14.3543 115.365 14.3183C115.576 14.0753 115.945 13.9903 116.294 13.8863C116.554 13.6033 116.947 13.4543 117.324 13.2893C117.371 13.2173 117.43 13.1523 117.489 13.0893C117.785 13.0043 117.946 12.8453 118.153 12.6923C118.716 12.2723 119.225 11.9383 119.746 11.4293C120.321 10.8713 120.802 10.3473 121.274 9.73826C121.425 9.54226 121.653 9.31226 121.771 9.14126C121.879 8.98226 121.898 8.76626 122.002 8.60926C122.14 8.40826 122.421 8.26126 122.368 7.91126C122.523 7.74626 122.592 7.49726 122.766 7.35026C122.81 6.85326 123.179 6.50926 123.297 6.15326ZM131.593 30.7453C132.251 30.7063 132.526 30.2853 133.088 30.1483C133.31 29.9413 133.54 29.7373 133.884 29.6513C134.043 29.4523 134.284 29.3583 134.483 29.2213C134.811 28.9893 135.125 28.7183 135.477 28.4233C135.573 28.3433 135.699 28.2823 135.809 28.1913C135.905 28.1133 135.983 27.9563 136.074 27.8933C136.174 27.8223 136.309 27.8303 136.406 27.7593C136.626 27.5963 136.828 27.3083 137.036 27.0953C137.46 26.6653 137.895 26.2723 138.333 25.8343C138.545 25.6223 138.641 25.2963 138.928 25.1703C139.026 24.9033 139.181 24.6913 139.393 24.5403C139.546 24.1943 139.77 23.9213 140.024 23.6783C139.967 23.3083 140.301 23.1673 140.422 22.9473C140.568 22.6823 140.55 22.3343 140.821 22.1833C140.89 22.0103 140.915 21.8533 140.986 21.6863C141.055 21.5293 141.177 21.4373 141.251 21.2873C141.377 21.0403 141.393 20.7313 141.485 20.4583C141.568 20.2113 141.77 20.0323 141.85 19.7953C141.896 19.6533 141.888 19.4723 141.915 19.3293C141.98 18.9973 142.149 18.6993 142.247 18.3673C142.428 17.7663 142.373 17.0743 142.713 16.5083C142.87 15.8763 142.829 15.3183 142.978 14.7823C143.052 14.5153 143.243 14.2633 143.31 13.9863C143.355 13.8003 143.316 13.5823 143.377 13.3893C143.428 13.2223 143.899 12.4743 144.074 12.2933C144.213 12.1503 144.349 12.0793 144.571 11.9613C144.924 11.7733 145.174 11.5713 145.665 11.4293C146.256 11.2623 146.578 11.2623 147.193 11.4293C147.409 11.4903 147.68 11.5003 147.857 11.5633C147.992 11.6143 148.181 11.8553 148.387 11.9613C148.597 12.0713 148.707 12.0693 148.853 12.1953C148.986 12.3113 149.022 12.4943 149.149 12.6593C149.267 12.8083 149.436 12.8943 149.515 13.0243C149.811 13.5013 150.008 14.0163 150.379 14.3833C150.416 14.5873 150.585 14.6643 150.577 14.9163C150.948 15.1853 151.027 15.7503 151.408 16.0103C151.41 16.3513 151.656 16.5303 151.805 16.7743C151.919 16.9543 151.966 17.1723 152.072 17.3373C152.139 17.4453 152.235 17.5223 152.304 17.6383C152.369 17.7423 152.398 17.8793 152.469 18.0013C152.575 18.1823 152.771 18.3253 152.867 18.5003C152.932 18.6163 152.936 18.7543 153.001 18.8653C153.072 18.9893 153.223 19.0463 153.3 19.1623C153.396 19.3113 153.394 19.5373 153.498 19.6943C153.569 19.7983 153.704 19.8593 153.765 19.9603C153.95 20.2703 153.997 20.6763 154.329 20.8893C154.454 21.4563 154.9 21.8473 155.158 22.3173C155.348 22.6623 155.437 23.0573 155.755 23.3123C155.798 23.3893 155.77 23.5403 155.822 23.6113C156.163 23.9213 156.24 24.4993 156.619 24.7723C156.935 25.4983 157.373 26.1413 157.778 26.8303C157.856 26.9623 157.97 27.0403 158.045 27.1603C158.167 27.3633 158.212 27.6183 158.344 27.8263C158.406 27.9243 158.491 27.9993 158.544 28.0913C158.603 28.1973 158.617 28.3193 158.676 28.4233C158.772 28.5943 158.95 28.7203 159.041 28.8893C159.102 29.0033 159.112 29.1383 159.174 29.2543C159.306 29.5003 159.536 29.7413 159.705 30.0163C159.752 30.0933 159.748 30.1383 159.803 30.2143C159.925 30.3783 160.07 30.6473 160.137 30.9123C160.394 31.1083 160.439 31.3733 160.6 31.7093C160.677 31.8663 160.846 31.9653 160.932 32.1063C161.019 32.2493 161.076 32.4263 161.166 32.5723C161.416 32.9823 161.649 33.4673 161.962 33.8663C161.981 33.9443 162.009 34.0173 161.993 34.1313C162.248 34.3203 162.321 34.5773 162.492 34.8953C162.572 35.0423 162.745 35.1503 162.824 35.2923C162.889 35.4063 162.898 35.5473 162.957 35.6573C163.107 35.9463 163.409 36.1313 163.456 36.5533C163.826 36.8573 163.904 37.4543 164.283 37.7493C164.311 37.9443 164.391 38.1203 164.484 38.2793C164.627 38.5253 164.762 38.7983 164.916 39.0433C164.982 39.1533 165.112 39.2303 165.181 39.3423C165.281 39.5053 165.314 39.7073 165.413 39.8723C165.487 40.0003 165.637 40.1063 165.713 40.2383C165.786 40.3713 165.805 40.5383 165.878 40.6703C165.945 40.7923 166.065 40.8453 166.141 40.9683C166.226 41.0963 166.206 41.2833 166.277 41.3993C166.377 41.5713 166.577 41.6623 166.674 41.8313C166.752 41.9703 166.758 42.1493 166.841 42.2963C166.911 42.4243 167.065 42.4963 167.139 42.6283C167.286 42.8873 167.3 43.2783 167.603 43.4243C167.66 43.7613 167.831 43.9483 168.001 44.2213C168.096 44.3703 168.149 44.5313 168.233 44.6873C168.318 44.8383 168.475 44.9603 168.565 45.1173C168.734 45.4113 168.767 45.7163 169.031 45.9143C169.29 46.6923 169.852 47.1713 170.125 47.9373C170.245 48.0633 170.327 48.2243 170.457 48.3363C170.722 49.0453 171.144 49.5973 171.553 50.1613V50.4263C171.676 50.5363 171.753 50.6913 171.885 50.7913C172.177 51.5493 172.741 52.0363 172.979 52.8503C173.281 53.0343 173.297 53.3663 173.478 53.7123C173.611 53.9693 173.847 54.2153 174.008 54.4763C174.171 54.7393 174.346 55.0023 174.44 55.3053C174.625 55.5313 174.86 55.7043 174.872 56.1023C175.448 56.7113 175.697 57.6443 176.267 58.2593C176.267 58.3693 176.322 58.4243 176.298 58.5583C176.744 58.9743 176.997 59.6793 177.361 60.2513C177.51 60.4843 177.722 60.6753 177.757 61.0483C178.343 61.7203 178.69 62.6193 179.154 63.4033C179.262 63.5903 179.455 63.7103 179.551 63.9003C179.61 64.0183 179.598 64.1553 179.651 64.2653C179.737 64.4503 179.95 64.5743 180.05 64.7643C180.154 64.9613 180.331 65.4223 180.415 65.6603C180.619 66.2453 180.578 66.9333 180.446 67.7173C180.12 68.3333 179.838 68.9873 179.352 69.4433C179.073 69.5413 178.852 69.6943 178.689 69.9093C178.097 70.1703 177.712 70.3743 176.995 70.5393C176.546 70.6413 176.119 70.8793 175.668 70.9383C175.202 70.9993 174.591 71.0053 174.075 70.9383C173.631 70.8813 173.25 70.6513 172.914 70.5393C172.653 70.4533 172.421 70.4473 172.217 70.3413C172.032 70.2423 171.898 70.0813 171.718 69.9753C171.354 69.7573 171.007 69.3273 170.69 69.2453C170.254 69.1333 170.028 69.5433 169.661 69.8083C169.506 69.9203 169.235 69.9993 168.997 70.1403C168.542 70.4133 167.917 70.6633 167.271 70.7713C167.037 70.8103 166.758 70.8283 166.54 70.8043C166.316 70.7813 166.128 70.6253 165.912 70.5723C165.629 70.5043 165.356 70.5633 165.114 70.5063C164.641 70.3923 164.383 69.9773 163.786 69.9093C163.517 69.6493 163.117 69.3353 162.69 69.4103C162.496 69.4453 162.36 69.6893 162.16 69.8423C161.775 70.1403 161.408 70.4133 160.899 70.5723C160.243 71.1813 158.008 71.1383 157.381 70.5393C157.244 70.5433 157.126 70.5293 157.049 70.4723C156.764 70.2863 156.381 70.1033 156.053 69.8753C155.712 69.6373 155.631 69.2453 155.057 69.5103C154.708 69.6713 154.364 70.0703 154.095 70.3073C153.594 70.3963 153.154 70.8973 152.535 70.9693C152.06 71.0283 151.473 71.0203 151.009 70.9693C150.353 70.9003 149.898 70.4043 149.416 70.3413C149.1 70.0263 148.66 69.8363 148.354 69.5103C147.819 69.3683 147.741 69.7063 147.458 69.9093C147.358 69.9813 147.211 69.9953 147.093 70.0743C146.983 70.1483 146.902 70.2943 146.828 70.3413C146.625 70.4603 146.401 70.4823 146.164 70.5723C145.557 71.1403 143.475 71.1563 142.911 70.5393C142.53 70.5553 142.461 70.2583 142.116 70.2403C141.791 70.7103 142.143 71.2213 142.281 71.7003C142.432 72.2243 142.406 72.8083 142.514 73.3603C142.609 73.8493 142.866 74.2593 142.911 74.7543C142.964 75.3323 142.995 75.7543 143.143 76.2473C143.192 76.4063 143.31 76.5453 143.343 76.7123C143.43 77.1313 143.416 77.5653 143.508 78.0073C143.62 78.5273 143.748 78.9833 143.84 79.5983C143.938 80.2483 144.166 80.8513 144.306 81.4913C144.374 81.8133 144.353 82.1533 144.406 82.4873C144.476 82.9293 144.683 83.3513 144.769 83.7803C144.814 83.9983 144.769 84.2203 144.803 84.4433C144.869 84.8853 145.068 85.3043 145.168 85.7383C145.235 86.0273 145.223 86.3433 145.268 86.6353C145.362 87.2503 145.6 87.8103 145.734 88.3933C145.824 88.8003 145.783 89.2383 145.865 89.6543C145.957 90.1143 146.189 90.4993 146.23 90.9513C146.246 91.1163 146.215 91.2833 146.23 91.4483C146.284 92.0093 146.649 92.5613 146.596 93.0723C146.558 93.4373 146.337 93.6423 146.097 93.8703C132.939 93.9303 119.139 93.9053 105.708 93.9053C104.678 93.9053 104.052 94.0053 103.783 93.2723C103.732 92.4993 104.012 91.9803 104.115 91.3143C104.181 90.8643 104.24 90.3813 104.346 89.9533C104.433 89.6093 104.58 89.3013 104.645 88.9593C104.716 88.5883 104.686 88.2033 104.745 87.7963C104.814 87.3273 105.112 86.9673 105.177 86.4353C105.205 86.2033 105.167 85.9723 105.211 85.7383C105.287 85.3103 105.472 84.9013 105.574 84.4433C105.688 83.9393 105.637 83.3913 105.774 82.9173C105.876 82.5663 106.012 82.2953 106.073 81.9553C106.136 81.6013 106.138 81.2363 106.206 80.8613C106.299 80.3303 106.532 79.8123 106.603 79.2683C106.627 79.0933 106.601 78.9083 106.637 78.7383C106.672 78.5693 106.792 78.4353 106.835 78.2723C106.996 77.6653 106.996 77.0403 107.102 76.4123C107.249 75.5243 107.682 74.7193 107.666 73.6253C108.043 73.1083 107.943 72.3913 108.063 71.6663C108.137 71.2343 108.51 70.8183 108.33 70.3413C107.958 70.3903 107.772 70.4273 107.532 70.5393C107.414 70.5943 107.354 70.7123 107.234 70.7713C106.694 71.0423 105.405 71.1073 104.745 70.8713C104.58 70.8123 104.45 70.6373 104.28 70.5723C104.073 70.4903 103.906 70.4723 103.716 70.3723C103.555 70.2903 103.404 70.2133 103.252 70.1073C102.918 69.8773 102.547 69.4083 102.09 69.5103C101.875 69.5573 101.714 69.8383 101.593 69.9423C101.084 70.0643 100.882 70.4923 100.33 70.5723C99.1328 71.3883 97.3948 70.9383 96.4798 70.3723C96.0518 70.1073 95.7078 69.7043 95.3208 69.5103C94.7948 69.2473 94.6788 69.6343 94.3228 69.8753C94.2498 69.9243 94.1718 69.9283 94.0908 69.9753C93.9278 70.0703 93.7258 70.3013 93.5278 70.4053C93.3818 70.4823 93.2058 70.4723 93.0618 70.5393C92.7318 70.6923 92.5278 70.9283 92.0018 70.9693C91.3258 71.0243 90.3558 71.0323 89.8758 70.8043C89.7618 70.7513 89.6638 70.6333 89.5438 70.5723C89.3298 70.4623 89.1078 70.4293 88.9138 70.3073C88.7188 70.1843 88.4968 70.0543 88.2828 69.9093C88.0218 69.7303 87.8238 69.3633 87.3208 69.4103C87.0768 69.4333 86.8728 69.7283 86.5898 69.8753C86.4038 69.9733 86.2008 69.9773 86.0598 70.0403C85.8178 70.1543 85.6748 70.3663 85.3288 70.4723C85.1108 70.5393 84.8378 70.5143 84.5998 70.5723C84.3708 70.6273 84.2228 70.7713 84.0008 70.8043C83.4298 70.8893 82.8308 70.7283 82.4748 70.5393C81.2038 70.4273 80.6878 69.5593 79.7208 69.1443C79.3378 69.4693 78.9478 69.8083 78.4598 70.1073C78.1438 70.3013 77.9258 70.4353 77.4308 70.5393C77.0578 70.6163 76.7648 70.8913 76.4348 70.9383C74.5578 71.1973 73.0998 70.4963 71.6898 69.9093C71.2718 69.5653 71.0158 69.4533 70.6938 69.0443C70.5288 68.8363 70.4658 68.7123 70.3288 68.4473C70.2738 68.3433 70.1538 68.2823 70.0968 68.1823C69.8588 67.7723 69.8198 67.1213 69.8318 66.5893C69.8508 65.5093 70.4348 64.5923 70.9588 63.7353C71.0418 63.6003 71.1808 63.4803 71.2578 63.3363C71.3398 63.1833 71.3418 62.9833 71.4248 62.8383C71.4938 62.7183 71.6448 62.6633 71.7208 62.5393C71.7978 62.4213 71.8138 62.2403 71.8878 62.1093C71.9588 61.9853 72.0788 61.9013 72.1548 61.7773C72.2558 61.6063 72.2888 61.3843 72.3868 61.2133C72.5088 61.0013 72.6678 60.8263 72.7858 60.6143C72.9038 60.4003 73.0098 60.1743 73.1828 60.0193C73.1958 59.6583 73.4948 59.4813 73.6458 59.2213C73.7438 59.0563 73.7538 58.8383 73.8468 58.6913C73.9268 58.5613 74.0388 58.4893 74.1118 58.3593C74.2648 58.0903 74.3418 57.7803 74.6108 57.5953C74.8368 56.9473 75.1998 56.5293 75.5398 55.9043C75.6138 55.7653 75.6848 55.6053 75.7718 55.4723C75.9368 55.2183 76.0478 55.0633 76.2038 54.7413C76.2818 54.5743 76.4508 54.4663 76.5358 54.3093C76.5808 54.2253 76.5528 54.0733 76.5998 53.9773C76.6928 53.7873 76.8258 53.7083 76.9658 53.5783C77.5668 52.2333 78.4188 51.1393 79.0578 49.8293C79.4108 49.5403 79.4558 48.9453 79.8198 48.6683C79.8828 48.3463 80.1118 48.1433 80.2848 47.8703C80.3788 47.7213 80.3848 47.4933 80.4838 47.3403C80.5578 47.2263 80.7128 47.1673 80.7818 47.0423C80.8688 46.8883 80.8878 46.7043 80.9818 46.5433C81.0628 46.4033 81.2018 46.2893 81.2808 46.1463C81.4458 45.8453 81.5228 45.4983 81.8108 45.2823C81.8208 45.0913 81.9208 44.9953 81.9448 44.8163C82.2338 44.6903 82.2198 44.3393 82.3748 44.0873C82.4518 43.9643 82.6318 43.8873 82.7068 43.7563C82.7698 43.6473 82.7878 43.5023 82.8408 43.3903C82.9308 43.2043 83.0978 43.0463 83.2058 42.8603C83.2728 42.7443 83.2748 42.6013 83.3388 42.4953C83.4038 42.3863 83.5378 42.3333 83.6048 42.2293C83.7808 41.9473 83.7928 41.5543 84.1018 41.3673C84.2248 41.0143 84.3468 40.6603 84.6318 40.4713C84.8088 39.8743 85.2308 39.4193 85.5298 38.9103C85.7118 38.5983 85.7548 38.2243 86.0598 38.0143C86.2598 37.4333 86.6448 36.9583 86.9558 36.4213C87.1358 36.1093 87.2108 35.8083 87.4878 35.5903C87.5388 35.5223 87.5108 35.3703 87.5548 35.2923C87.8668 34.8603 88.2578 34.3063 88.5168 33.7663C88.6248 33.5343 88.7978 33.3873 88.9138 33.1693C88.9848 33.0373 88.9788 32.8703 89.0468 32.7363C89.1238 32.5893 89.2868 32.5153 89.3788 32.3733C89.6288 31.9863 89.8018 31.5233 90.0428 31.1103C90.1198 30.9813 90.2398 30.8723 90.3058 30.7453C90.3828 30.6073 90.4008 30.4523 90.4728 30.3153C90.6128 30.0493 90.7968 29.8653 90.9718 29.5533C91.2748 29.0083 91.6148 28.4883 91.9348 27.9243C92.0758 27.6733 92.3388 27.4723 92.3328 27.1603C92.7598 26.6533 93.0538 26.0393 93.3938 25.4693C93.4688 25.3433 93.5888 25.2333 93.6588 25.1043C93.7238 24.9883 93.7338 24.8543 93.7928 24.7383C93.8808 24.5673 94.0538 24.4733 94.1578 24.3083C94.2488 24.1633 94.2638 23.9633 94.3568 23.8093C94.4138 23.7173 94.5288 23.6703 94.5898 23.5783C94.7018 23.4033 94.7158 23.1533 94.8218 22.9803C94.8988 22.8553 95.0498 22.7723 95.1208 22.6483C95.1848 22.5313 95.1868 22.3733 95.2518 22.2503C95.3388 22.0873 95.5308 21.9793 95.6198 21.8203C95.6858 21.6923 95.6758 21.5133 95.7508 21.3873C95.8158 21.2793 95.9498 21.2213 96.0158 21.1223C96.1128 20.9793 96.1518 20.7733 96.2478 20.6233C96.4128 20.3703 96.5558 20.1363 96.7468 19.8283C96.8978 19.5803 97.0378 19.3433 97.2108 19.0643C97.3558 18.8323 97.4968 18.5983 97.6758 18.3003C97.8288 18.0483 98.0468 17.8383 98.1078 17.4713C98.3048 17.3693 98.3558 17.1213 98.5378 17.0053C98.5168 16.8503 98.5908 16.7933 98.6048 16.6733C99.2628 15.8843 99.6438 14.8133 100.33 14.0513C100.326 13.6803 100.63 13.5213 100.795 13.2893C100.905 13.1363 100.927 12.9083 101.027 12.7593C101.186 12.5273 101.488 12.3483 101.626 12.0623C101.954 12.0893 102.09 11.7573 102.355 11.6293C102.586 11.5173 103.068 11.4823 103.484 11.3983C103.732 11.3473 103.838 11.2393 104.148 11.2643C104.335 11.2803 104.553 11.3943 104.778 11.4643C105.35 11.6413 105.574 11.7593 106.006 12.0623C106.434 12.3623 106.542 12.5093 106.77 13.0243C106.841 13.1833 106.955 13.3303 107.002 13.4543C107.132 13.7983 107.135 14.2063 107.234 14.6173C107.304 14.9143 107.464 15.1903 107.532 15.4793C107.615 15.8233 107.605 16.1613 107.666 16.5083C107.768 17.1023 107.984 17.4573 108.063 18.1353C108.118 18.5943 108.42 19.0703 108.528 19.4963C108.695 20.1503 108.96 20.6373 109.092 21.2543C109.288 21.5013 109.481 21.7513 109.524 22.1503C110.08 22.9903 110.559 24.0163 111.215 24.8053C112.099 25.8683 113.044 26.9053 114.136 27.8263C114.576 28.1973 115.077 28.5473 115.564 28.9203C116.131 29.3563 116.654 29.7023 117.257 30.1163C117.563 30.1713 117.734 30.3853 117.988 30.5133C118.182 30.6133 118.431 30.6253 118.685 30.7453C118.793 30.7983 118.889 30.9373 119.048 31.0123C119.317 31.1403 119.983 31.3143 120.211 31.2443C120.541 31.1423 120.38 30.6983 120.51 30.2483C120.606 29.9143 121.117 29.5173 120.708 29.0873C120.553 28.9223 120.15 28.8953 119.879 28.7883C119.431 28.6123 119.294 28.2843 118.783 28.2583C118.156 27.7553 117.328 27.4573 116.791 26.8643C115.843 26.2783 114.957 25.3633 114.169 24.5073C113.613 23.9023 113.173 23.2503 112.678 22.5483C112.509 22.3113 112.462 22.1893 112.313 21.8843C112.154 21.5663 111.83 21.3863 111.814 20.9223C111.472 20.6393 111.48 20.0993 111.284 19.5943C111.201 19.3863 111.042 19.2213 110.985 19.0303C110.897 18.7443 110.852 18.3593 110.785 18.0013C110.587 16.9213 110.369 15.6823 110.453 14.1513C110.5 13.3133 110.785 12.3403 110.918 11.5963C110.96 11.3663 110.93 11.1403 110.985 10.9993C111.025 10.8893 111.14 10.8323 111.184 10.7343C111.315 10.4313 111.294 10.1093 111.415 9.73826C111.48 9.54026 111.688 9.37126 111.781 9.14126C111.857 8.95626 111.836 8.71726 111.912 8.54426C111.977 8.40226 112.132 8.32026 112.211 8.17826C112.531 7.60926 112.749 6.91926 113.24 6.55226C113.623 5.74726 114.254 5.14226 114.835 4.52726C115.558 3.76126 116.454 3.18926 117.257 2.50426C117.852 2.25026 118.335 1.86026 118.917 1.57326C119.088 1.48826 119.304 1.49426 119.48 1.40826C119.639 1.33126 119.749 1.14926 119.912 1.07626C120.262 0.919259 120.669 0.933259 121.04 0.777259C121.439 0.465259 121.994 0.471259 122.535 0.379259C123.028 0.294259 123.536 0.102259 124.061 0.047259C124.878 -0.039741 125.791 0.021259 126.616 0.013259C126.881 0.011259 127.131 0.113259 127.414 0.147259C127.557 0.165259 127.71 0.125259 127.844 0.147259C128.017 0.174259 128.174 0.304259 128.343 0.345259C128.789 0.455259 129.256 0.447259 129.669 0.579259C129.887 0.648259 130.095 0.770259 130.301 0.844259C130.829 1.03526 131.322 1.03526 131.629 1.44126C131.955 1.43526 132.143 1.68326 132.357 1.80726C132.554 1.91926 132.807 1.93226 132.988 2.03826C133.094 2.09926 133.192 2.21726 133.32 2.30426C133.505 2.42926 133.679 2.51626 133.85 2.66926C134.064 2.85926 134.33 3.02426 134.581 3.23326C134.758 3.38026 134.929 3.54326 135.111 3.69826C135.579 4.09126 136.07 4.37226 136.307 4.92626C136.683 5.24026 136.958 5.69226 137.27 6.12026C137.372 6.26126 137.527 6.35626 137.602 6.48526C137.671 6.60726 137.667 6.76226 137.733 6.88426C137.812 7.02326 137.989 7.10826 138.065 7.24926C138.12 7.34626 138.111 7.49126 138.166 7.61526C138.262 7.83126 138.48 8.01326 138.564 8.21226C138.69 8.50626 138.663 8.89726 138.961 9.10726C139.002 9.73626 139.399 10.3043 139.527 10.8323C139.595 11.1213 139.597 11.4093 139.658 11.7303C139.77 12.3013 139.961 12.8773 140.024 13.4543C140.073 13.8983 140.024 14.3953 140.024 14.8823C140.024 15.3543 140.071 15.8543 140.024 16.3103C139.963 16.9053 139.719 17.5303 139.592 18.1683C139.533 18.4633 139.542 18.6893 139.46 18.9303C139.389 19.1383 139.24 19.3053 139.161 19.5273C139.087 19.7323 139.112 19.9773 139.028 20.1603C138.975 20.2743 138.824 20.3663 138.763 20.4923C138.645 20.7313 138.649 21.0283 138.531 21.2543C138.45 21.4093 138.291 21.5233 138.199 21.6863C137.973 22.0793 137.733 22.5013 137.535 22.9143C137.447 22.9593 137.409 23.0533 137.303 23.0813C136.958 23.7193 136.474 24.3163 135.976 24.8723C135.386 25.5283 134.701 26.3213 133.95 26.8953C133.64 27.1333 133.298 27.3193 132.988 27.5593C132.831 27.6813 132.668 27.7813 132.489 27.8933C132.065 28.1563 131.615 28.3763 131.163 28.6883C130.729 28.7733 130.376 28.9613 130.034 29.1523C129.839 29.2643 129.665 29.3153 129.635 29.4503C129.582 29.7103 129.871 29.8433 130 30.2143C130.107 30.5173 130.02 30.7823 130.167 30.9793C130.515 31.4383 131.269 31.0913 131.593 30.7453ZM131.926 4.12926V4.42826C132.17 4.69326 132.258 5.01126 132.423 5.39026C132.521 5.61226 132.731 5.78726 132.889 6.02126C133.05 6.26126 133.287 6.50826 133.419 6.78526C133.741 7.09126 134.118 7.45126 134.515 7.74726C134.641 7.84226 134.757 7.96426 134.88 8.04626C135.041 8.15226 135.236 8.15626 135.411 8.24426C135.629 8.35226 136.485 8.82226 136.605 9.07526C136.901 9.69626 136.505 10.2793 135.941 10.3033C135.446 10.3223 135.118 9.97126 134.749 9.77126C134.542 9.66126 134.311 9.64526 134.085 9.53926C132.781 8.61826 131.742 7.43326 130.897 6.05426C130.791 5.49626 130.371 5.20026 130.333 4.62626C130.264 3.61526 131.414 3.46926 131.926 4.12926ZM121.97 6.98426C121.789 7.78726 121.155 8.13926 120.908 8.87526C120.12 9.82826 119.207 10.7863 118.285 11.6623C117.953 11.9793 117.458 12.2873 117.024 12.5583C116.91 12.6313 116.836 12.7583 116.726 12.8253C116.531 12.9413 116.256 12.9433 115.995 13.0573C115.879 13.1083 115.816 13.2343 115.697 13.2893C115.233 13.5093 113.882 13.6743 113.573 13.2553C113.31 12.9023 113.471 12.2523 113.772 12.0283C114.127 11.8863 114.53 11.9593 114.868 11.8293C114.968 11.7903 115.029 11.6803 115.133 11.6293C115.351 11.5213 115.638 11.5273 115.83 11.4313C115.968 11.3623 116.125 11.2093 116.294 11.0993C116.453 10.9973 116.635 10.8983 116.759 10.8003C117.06 10.5643 117.398 10.2973 117.688 10.0053C118.026 9.66326 118.338 9.32926 118.651 8.94226C118.814 8.74026 118.965 8.62426 119.049 8.34526C119.232 8.26026 119.307 8.07026 119.48 7.98026C119.776 7.32426 120.308 6.90326 120.542 6.18626C121.006 5.94126 120.858 5.18326 121.141 4.76026C121.581 4.09326 122.497 4.44226 122.601 5.15726C122.648 5.48126 122.453 5.80326 122.369 6.15326C122.284 6.49726 122.239 6.83126 121.97 6.98426ZM129.636 5.05926C129.799 5.83126 130.208 6.47126 130.665 7.05126C130.754 7.16326 130.811 7.30426 130.897 7.41626C131.176 7.77326 131.563 8.04626 131.826 8.37626C132.005 8.60026 132.113 8.88726 132.325 9.10926C133.12 9.93026 134.012 10.7223 134.847 11.3973C135.063 11.4583 135.183 11.6153 135.444 11.6313C135.603 11.8143 135.882 11.8773 136.075 12.0283C136.713 12.0323 137.176 12.2083 137.5 12.5253C137.628 12.7093 137.658 13.2123 137.5 13.3893C137.143 13.9073 136.628 13.8543 135.941 13.6213C135.428 13.4483 135.092 13.3403 134.68 13.1223C134.209 12.8743 133.763 12.6623 133.354 12.3263C133.069 12.0973 132.814 11.8613 132.623 11.6313C132.484 11.5473 132.325 11.5053 132.191 11.3973C132.05 11.2813 131.999 11.0953 131.859 10.9323C131.408 10.4013 130.789 9.95826 130.465 9.37426C129.709 8.71426 129.223 7.78526 128.609 6.98226C128.438 6.34526 128 5.97626 128.11 5.05926C128.404 4.45626 129.296 4.35426 129.636 5.05926ZM121.505 17.2383C120.454 17.5133 119.889 16.8223 119.513 16.2113C119.564 15.8123 119.447 15.5193 119.513 15.1823C119.619 14.6573 120.615 13.8113 121.407 14.1193C121.658 14.2173 122.249 14.6403 122.367 14.9483C122.485 15.2543 122.499 16.0733 122.367 16.4093C122.218 16.7883 121.809 16.8963 121.505 17.2383ZM130.399 14.5173C130.521 14.8063 130.674 15.0613 130.865 15.2793C131.112 16.1613 130.6 16.7583 130.199 17.2043C128.889 17.7383 127.873 16.9193 127.909 15.7113C127.95 14.4173 129.248 13.8553 130.399 14.5173ZM124.094 19.0313C124.041 18.3963 124.538 18.0903 124.99 17.9033C125.175 17.8273 125.992 18.3023 126.117 18.4673C126.33 18.7423 126.277 19.1543 126.017 19.3293C125.346 19.4203 124.418 19.4733 124.094 19.0313ZM129.072 21.2873V21.8843C128.601 22.5423 127.882 22.9513 127.281 23.4773C126.79 23.5213 126.495 23.9113 125.953 23.9763C125.501 24.0293 124.916 24.0533 124.458 23.9093C124.27 23.8513 124.089 23.6913 123.894 23.6113C123.539 23.4643 123.183 23.4163 122.999 23.0813C122.604 23.0183 122.38 22.7233 122.07 22.3833C121.807 22.0953 121.516 21.8713 121.571 21.4883C121.608 21.2323 122.054 20.7003 122.567 20.7903C122.928 20.8513 123.166 21.2363 123.529 21.5213C123.61 21.5823 123.733 21.5863 123.828 21.6533C123.963 21.7493 124.042 21.9183 124.16 21.9853C124.232 22.0243 124.35 22.0023 124.458 22.0513C124.625 22.1243 124.914 22.3583 125.222 22.3833C125.627 22.4173 126.11 22.1813 126.416 22.0183C126.695 21.8693 126.992 21.5883 127.247 21.3873C127.505 21.1813 127.846 20.8393 128.076 20.7903C128.471 20.7043 128.779 20.9553 129.072 21.2873Z" fill="#030405"/>
</svg>
